0
SECTION
2
HEADER
9
$INSUNITS
70
4
9
$ACADVER
1
AC1014
9
$HANDSEED
5
FFFF
0
ENDSEC
0
SECTION
2
TABLES
0
TABLE
2
VPORT
5
8
100
AcDbSymbolTable
0
ENDTAB
0
TABLE
2
LTYPE
5
5
100
AcDbSymbolTable
0
LTYPE
5
14
100
AcDbSymbolTableRecord
100
AcDbLinetypeTableRecord
2
BYBLOCK
70
0
0
LTYPE
5
15
100
AcDbSymbolTableRecord
100
AcDbLinetypeTableRecord
2
BYLAYER
70
0
0
ENDTAB
0
TABLE
2
LAYER
5
2
100
AcDbSymbolTable
70
2
0
LAYER
5
50
100
AcDbSymbolTableRecord
100
AcDbLayerTableRecord
2
0
70
0
6
CONTINUOUS
0
ENDTAB
0
TABLE
2
STYLE
5
3
100
AcDbSymbolTable
70
1
0
STYLE
5
11
100
AcDbSymbolTableRecord
100
AcDbTextStyleTableRecord
2
STANDARD
70
0
0
ENDTAB
0
TABLE
2
VIEW
5
6
100
AcDbSymbolTable
70
0
0
ENDTAB
0
TABLE
2
UCS
5
7
100
AcDbSymbolTable
70
0
0
ENDTAB
0
TABLE
2
APPID
5
9
100
AcDbSymbolTable
70
2
0
APPID
5
12
100
AcDbSymbolTableRecord
100
AcDbRegAppTableRecord
2
ACAD
70
0
0
ENDTAB
0
TABLE
2
DIMSTYLE
5
A
100
AcDbSymbolTable
70
1
0
ENDTAB
0
TABLE
2
BLOCK_RECORD
5
1
100
AcDbSymbolTable
70
1
0
BLOCK_RECORD
5
1F
100
AcDbSymbolTableRecord
100
AcDbBlockTableRecord
2
*MODEL_SPACE
0
BLOCK_RECORD
5
1B
100
AcDbSymbolTableRecord
100
AcDbBlockTableRecord
2
*PAPER_SPACE
0
ENDTAB
0
ENDSEC
0
SECTION
2
BLOCKS
0
BLOCK
5
20
100
AcDbEntity
100
AcDbBlockBegin
2
*MODEL_SPACE
0
ENDBLK
5
21
100
AcDbEntity
100
AcDbBlockEnd
0
BLOCK
5
1C
100
AcDbEntity
100
AcDbBlockBegin
2
*PAPER_SPACE
0
ENDBLK
5
1D
100
AcDbEntity
100
AcDbBlockEnd
0
ENDSEC
0
SECTION
2
ENTITIES
0
LINE
5
100
100
AcDbEntity
8
0
100
AcDbLine
10
-151.50000138580799
20
-9.9999999999999982
30
0
11
-151.50000138580799
21
0
31
0
0
LINE
5
101
100
AcDbEntity
8
0
100
AcDbLine
10
-151.50000138580799
20
0
30
0
11
-180
21
0
31
0
0
SPLINE
5
102
100
AcDbEntity
8
0
100
AcDbSpline
70
4
71
5
72
31
73
25
74
0
42
0.000000001
43
0.0000000001
44
0.0000000001
40
-1
40
-1
40
-1
40
-1
40
-1
40
-1
40
-0.95000000000000029
40
-0.90000000000000024
40
-0.8500000000000002
40
-0.80000000000000016
40
-0.75000000000000011
40
-0.70000000000000007
40
-0.65000000000000002
40
-0.59999999999999998
40
-0.54999999999999993
40
-0.49999999999999994
40
-0.44999999999999996
40
-0.39999999999999997
40
-0.34999999999999998
40
-0.29999999999999999
40
-0.25
40
-0.20000000000000001
40
-0.15000000000000002
40
-0.10000000000000001
40
-0.050000000000000003
40
0
40
0
40
0
40
0
40
0
40
0
41
1
41
1
41
1
41
1
41
1
41
1
41
1
41
1
41
1
41
1
41
1
41
1
41
1
41
1
41
1
41
1
41
1
41
1
41
1
41
1
41
1
41
1
41
1
41
1
41
1
10
-179.99999999999997
20
-2.2204460492503131e-15
30
0
10
-179.14600550463646
20
-4.3627243948490442
30
0
10
-177.3214335685303
20
-12.632283553755439
30
0
10
-174.23483533071942
20
-23.668988574635552
30
0
10
-169.41696172662691
20
-35.637858909784342
30
0
10
-162.2290729801081
20
-46.042660052658647
30
0
10
-153.91942325578606
20
-52.066679005216997
30
0
10
-144.60169470538236
20
-54.163627143522675
30
0
10
-134.4842605974975
20
-53.162548443519455
30
0
10
-123.9173748266746
20
-50.457620031023218
30
0
10
-113.33369371360028
20
-47.753464232565534
30
0
10
-103.14220794606472
20
-46.614824349306112
30
0
10
-93.645876274948776
20
-48.116755412540883
30
0
10
-84.928218593037442
20
-52.35938033040307
30
0
10
-76.813610901268021
20
-58.306920659326558
30
0
10
-68.988268048750044
20
-64.336706076736704
30
0
10
-61.081378143955874
20
-68.611865549463943
30
0
10
-52.769467609566327
20
-69.561544088750665
30
0
10
-43.842928954122598
20
-66.185040556521798
30
0
10
-34.171546138399968
20
-57.8773844519203
30
0
10
-23.688250321361608
20
-44.343087878914801
30
0
10
-14.631760712775305
20
-29.257507690258326
30
0
10
-7.4620385366688655
20
-15.554131702824154
30
0
10
-2.5151856170879157
20
-5.3609720630857751
30
0
10
0
20
0
30
0
0
LINE
5
103
100
AcDbEntity
8
0
100
AcDbLine
10
3.9184432354253578e-15
20
2.0804706783429877e-15
30
0
11
-28.000001385808009
21
0
31
0
0
LINE
5
104
100
AcDbEntity
8
0
100
AcDbLine
10
-28.000001385808009
20
0
30
0
11
-28.000001385808009
21
-9.9999999999999982
31
0
0
LINE
5
105
100
AcDbEntity
8
0
100
AcDbLine
10
-28.000001385808009
20
-9.9999999999999982
30
0
11
-31.500001385808005
21
-9.9999999999999982
31
0
0
LINE
5
106
100
AcDbEntity
8
0
100
AcDbLine
10
-31.500001385808005
20
-9.9999999999999982
30
0
11
-31.500001385808005
21
0
31
0
0
LINE
5
107
100
AcDbEntity
8
0
100
AcDbLine
10
-31.500001385808005
20
0
30
0
11
-58.000001385808005
21
0
31
0
0
LINE
5
108
100
AcDbEntity
8
0
100
AcDbLine
10
-58.000001385808005
20
0
30
0
11
-58.000001385808005
21
-9.9999999999999982
31
0
0
LINE
5
109
100
AcDbEntity
8
0
100
AcDbLine
10
-58.000001385808005
20
-9.9999999999999982
30
0
11
-61.500001385808005
21
-9.9999999999999982
31
0
0
LINE
5
110
100
AcDbEntity
8
0
100
AcDbLine
10
-61.500001385808005
20
-9.9999999999999982
30
0
11
-61.500001385808005
21
0
31
0
0
LINE
5
111
100
AcDbEntity
8
0
100
AcDbLine
10
-61.500001385808005
20
0
30
0
11
-88.000001385808005
21
0
31
0
0
LINE
5
112
100
AcDbEntity
8
0
100
AcDbLine
10
-88.000001385808005
20
0
30
0
11
-88.000001385808005
21
-9.9999999999999982
31
0
0
LINE
5
113
100
AcDbEntity
8
0
100
AcDbLine
10
-88.000001385808005
20
-9.9999999999999982
30
0
11
-91.500001385808005
21
-9.9999999999999982
31
0
0
LINE
5
114
100
AcDbEntity
8
0
100
AcDbLine
10
-91.500001385808005
20
-9.9999999999999982
30
0
11
-91.500001385808005
21
0
31
0
0
LINE
5
115
100
AcDbEntity
8
0
100
AcDbLine
10
-91.500001385808005
20
0
30
0
11
-118.00000138580801
21
0
31
0
0
LINE
5
116
100
AcDbEntity
8
0
100
AcDbLine
10
-118.00000138580801
20
0
30
0
11
-118.00000138580801
21
-9.9999999999999982
31
0
0
LINE
5
117
100
AcDbEntity
8
0
100
AcDbLine
10
-118.00000138580801
20
-9.9999999999999982
30
0
11
-121.50000138580801
21
-9.9999999999999982
31
0
0
LINE
5
118
100
AcDbEntity
8
0
100
AcDbLine
10
-121.50000138580801
20
-9.9999999999999982
30
0
11
-121.50000138580801
21
0
31
0
0
LINE
5
119
100
AcDbEntity
8
0
100
AcDbLine
10
-121.50000138580801
20
0
30
0
11
-148.00000138580802
21
0
31
0
0
LINE
5
120
100
AcDbEntity
8
0
100
AcDbLine
10
-148.00000138580802
20
0
30
0
11
-148.00000138580802
21
-9.9999999999999982
31
0
0
LINE
5
121
100
AcDbEntity
8
0
100
AcDbLine
10
-148.00000138580802
20
-9.9999999999999982
30
0
11
-151.50000138580799
21
-9.9999999999999982
31
0
0
ENDSEC
0
SECTION
2
OBJECTS
0
DICTIONARY
5
C
100
AcDbDictionary
3
ACAD_GROUP
350
D
3
ACAD_MLINESTYLE
350
17
0
DICTIONARY
5
D
100
AcDbDictionary
0
DICTIONARY
5
1A
330
C
100
AcDbDictionary
0
DICTIONARY
5
17
100
AcDbDictionary
0
ENDSEC
0
EOF
