0
SECTION
2
HEADER
9
$INSUNITS
70
4
9
$ACADVER
1
AC1014
9
$HANDSEED
5
FFFF
0
ENDSEC
0
SECTION
2
TABLES
0
TABLE
2
VPORT
5
8
100
AcDbSymbolTable
0
ENDTAB
0
TABLE
2
LTYPE
5
5
100
AcDbSymbolTable
0
LTYPE
5
14
100
AcDbSymbolTableRecord
100
AcDbLinetypeTableRecord
2
BYBLOCK
70
0
0
LTYPE
5
15
100
AcDbSymbolTableRecord
100
AcDbLinetypeTableRecord
2
BYLAYER
70
0
0
ENDTAB
0
TABLE
2
LAYER
5
2
100
AcDbSymbolTable
70
2
0
LAYER
5
50
100
AcDbSymbolTableRecord
100
AcDbLayerTableRecord
2
0
70
0
6
CONTINUOUS
0
ENDTAB
0
TABLE
2
STYLE
5
3
100
AcDbSymbolTable
70
1
0
STYLE
5
11
100
AcDbSymbolTableRecord
100
AcDbTextStyleTableRecord
2
STANDARD
70
0
0
ENDTAB
0
TABLE
2
VIEW
5
6
100
AcDbSymbolTable
70
0
0
ENDTAB
0
TABLE
2
UCS
5
7
100
AcDbSymbolTable
70
0
0
ENDTAB
0
TABLE
2
APPID
5
9
100
AcDbSymbolTable
70
2
0
APPID
5
12
100
AcDbSymbolTableRecord
100
AcDbRegAppTableRecord
2
ACAD
70
0
0
ENDTAB
0
TABLE
2
DIMSTYLE
5
A
100
AcDbSymbolTable
70
1
0
ENDTAB
0
TABLE
2
BLOCK_RECORD
5
1
100
AcDbSymbolTable
70
1
0
BLOCK_RECORD
5
1F
100
AcDbSymbolTableRecord
100
AcDbBlockTableRecord
2
*MODEL_SPACE
0
BLOCK_RECORD
5
1B
100
AcDbSymbolTableRecord
100
AcDbBlockTableRecord
2
*PAPER_SPACE
0
ENDTAB
0
ENDSEC
0
SECTION
2
BLOCKS
0
BLOCK
5
20
100
AcDbEntity
100
AcDbBlockBegin
2
*MODEL_SPACE
0
ENDBLK
5
21
100
AcDbEntity
100
AcDbBlockEnd
0
BLOCK
5
1C
100
AcDbEntity
100
AcDbBlockBegin
2
*PAPER_SPACE
0
ENDBLK
5
1D
100
AcDbEntity
100
AcDbBlockEnd
0
ENDSEC
0
SECTION
2
ENTITIES
0
LINE
5
100
100
AcDbEntity
8
0
100
AcDbLine
10
-151.50000138580799
20
-10.000000000000002
30
0
11
-151.50000138580799
21
0
31
0
0
LINE
5
101
100
AcDbEntity
8
0
100
AcDbLine
10
-151.50000138580799
20
0
30
0
11
-180
21
0
31
0
0
SPLINE
5
102
100
AcDbEntity
8
0
100
AcDbSpline
70
4
71
5
72
31
73
25
74
0
42
0.000000001
43
0.0000000001
44
0.0000000001
40
-1
40
-1
40
-1
40
-1
40
-1
40
-1
40
-0.95000000000000029
40
-0.90000000000000024
40
-0.8500000000000002
40
-0.80000000000000016
40
-0.75000000000000011
40
-0.70000000000000007
40
-0.65000000000000002
40
-0.59999999999999998
40
-0.54999999999999993
40
-0.49999999999999994
40
-0.44999999999999996
40
-0.39999999999999997
40
-0.34999999999999998
40
-0.29999999999999999
40
-0.25
40
-0.20000000000000001
40
-0.15000000000000002
40
-0.10000000000000001
40
-0.050000000000000003
40
0
40
0
40
0
40
0
40
0
40
0
41
1
41
1
41
1
41
1
41
1
41
1
41
1
41
1
41
1
41
1
41
1
41
1
41
1
41
1
41
1
41
1
41
1
41
1
41
1
41
1
41
1
41
1
41
1
41
1
41
1
10
-180
20
0
30
0
10
-178.24148932516192
20
-3.9577267770356079
30
0
10
-174.7293754052819
20
-11.454197341014149
30
0
10
-169.47592874706885
20
-21.441972155563125
30
0
10
-162.50088474345529
20
-32.234727763916943
30
0
10
-153.8393714589663
20
-41.529883261226239
30
0
10
-145.25780204047425
20
-46.767217439341934
30
0
10
-136.80132306817379
20
-48.312683182058535
30
0
10
-128.54363163706128
20
-46.851400009767296
30
0
10
-120.59810375373161
20
-43.52369148789063
30
0
10
-113.11470724772457
20
-39.955328141560706
30
0
10
-106.20104579115656
20
-37.730166029543838
30
0
10
-99.86290666262498
20
-37.995009820036984
30
0
10
-93.914442720042416
20
-40.893037038157736
30
0
10
-87.969399690386467
20
-45.444370229319063
30
0
10
-81.567206513200489
20
-50.155574812883984
30
0
10
-74.260740195076565
20
-53.425786932738973
30
0
10
-65.733460998163523
20
-54.089547697478523
30
0
10
-55.787388857529344
20
-51.394568749104351
30
0
10
-44.310684502661672
20
-44.891098763255911
30
0
10
-31.255076285941318
20
-34.359566254960178
30
0
10
-19.540635834148087
20
-22.656375700379797
30
0
10
-10.045167694809155
20
-12.040323762311839
30
0
10
-3.4007415277443913
20
-4.1490858776486172
30
0
10
0
20
0
30
0
0
LINE
5
103
100
AcDbEntity
8
0
100
AcDbLine
10
-9.6173232561996532e-16
20
5.2120663631856075e-15
30
0
11
-28.000001385808009
21
0
31
0
0
LINE
5
104
100
AcDbEntity
8
0
100
AcDbLine
10
-28.000001385808009
20
0
30
0
11
-28.000001385808009
21
-10.000000000000002
31
0
0
LINE
5
105
100
AcDbEntity
8
0
100
AcDbLine
10
-28.000001385808009
20
-10.000000000000002
30
0
11
-31.500001385808005
21
-10.000000000000002
31
0
0
LINE
5
106
100
AcDbEntity
8
0
100
AcDbLine
10
-31.500001385808005
20
-10.000000000000002
30
0
11
-31.500001385808005
21
0
31
0
0
LINE
5
107
100
AcDbEntity
8
0
100
AcDbLine
10
-31.500001385808005
20
0
30
0
11
-58.000001385808005
21
0
31
0
0
LINE
5
108
100
AcDbEntity
8
0
100
AcDbLine
10
-58.000001385808005
20
0
30
0
11
-58.000001385808005
21
-10.000000000000002
31
0
0
LINE
5
109
100
AcDbEntity
8
0
100
AcDbLine
10
-58.000001385808005
20
-10.000000000000002
30
0
11
-61.500001385808005
21
-10.000000000000002
31
0
0
LINE
5
110
100
AcDbEntity
8
0
100
AcDbLine
10
-61.500001385808005
20
-10.000000000000002
30
0
11
-61.500001385808005
21
0
31
0
0
LINE
5
111
100
AcDbEntity
8
0
100
AcDbLine
10
-61.500001385808005
20
0
30
0
11
-88.000001385808005
21
0
31
0
0
LINE
5
112
100
AcDbEntity
8
0
100
AcDbLine
10
-88.000001385808005
20
0
30
0
11
-88.000001385808005
21
-10.000000000000002
31
0
0
LINE
5
113
100
AcDbEntity
8
0
100
AcDbLine
10
-88.000001385808005
20
-10.000000000000002
30
0
11
-91.500001385808005
21
-10.000000000000002
31
0
0
LINE
5
114
100
AcDbEntity
8
0
100
AcDbLine
10
-91.500001385808005
20
-10.000000000000002
30
0
11
-91.500001385808005
21
0
31
0
0
LINE
5
115
100
AcDbEntity
8
0
100
AcDbLine
10
-91.500001385808005
20
0
30
0
11
-118.00000138580801
21
0
31
0
0
LINE
5
116
100
AcDbEntity
8
0
100
AcDbLine
10
-118.00000138580801
20
0
30
0
11
-118.00000138580801
21
-10.000000000000002
31
0
0
LINE
5
117
100
AcDbEntity
8
0
100
AcDbLine
10
-118.00000138580801
20
-10.000000000000002
30
0
11
-121.50000138580801
21
-10.000000000000002
31
0
0
LINE
5
118
100
AcDbEntity
8
0
100
AcDbLine
10
-121.50000138580801
20
-10.000000000000002
30
0
11
-121.50000138580801
21
0
31
0
0
LINE
5
119
100
AcDbEntity
8
0
100
AcDbLine
10
-121.50000138580801
20
0
30
0
11
-148.00000138580802
21
0
31
0
0
LINE
5
120
100
AcDbEntity
8
0
100
AcDbLine
10
-148.00000138580802
20
0
30
0
11
-148.00000138580802
21
-10.000000000000002
31
0
0
LINE
5
121
100
AcDbEntity
8
0
100
AcDbLine
10
-148.00000138580802
20
-10.000000000000002
30
0
11
-151.50000138580799
21
-10.000000000000002
31
0
0
ENDSEC
0
SECTION
2
OBJECTS
0
DICTIONARY
5
C
100
AcDbDictionary
3
ACAD_GROUP
350
D
3
ACAD_MLINESTYLE
350
17
0
DICTIONARY
5
D
100
AcDbDictionary
0
DICTIONARY
5
1A
330
C
100
AcDbDictionary
0
DICTIONARY
5
17
100
AcDbDictionary
0
ENDSEC
0
EOF
