0
SECTION
2
HEADER
9
$INSUNITS
70
4
9
$ACADVER
1
AC1014
9
$HANDSEED
5
FFFF
0
ENDSEC
0
SECTION
2
TABLES
0
TABLE
2
VPORT
5
8
100
AcDbSymbolTable
0
ENDTAB
0
TABLE
2
LTYPE
5
5
100
AcDbSymbolTable
0
LTYPE
5
14
100
AcDbSymbolTableRecord
100
AcDbLinetypeTableRecord
2
BYBLOCK
70
0
0
LTYPE
5
15
100
AcDbSymbolTableRecord
100
AcDbLinetypeTableRecord
2
BYLAYER
70
0
0
ENDTAB
0
TABLE
2
LAYER
5
2
100
AcDbSymbolTable
70
2
0
LAYER
5
50
100
AcDbSymbolTableRecord
100
AcDbLayerTableRecord
2
0
70
0
6
CONTINUOUS
0
ENDTAB
0
TABLE
2
STYLE
5
3
100
AcDbSymbolTable
70
1
0
STYLE
5
11
100
AcDbSymbolTableRecord
100
AcDbTextStyleTableRecord
2
STANDARD
70
0
0
ENDTAB
0
TABLE
2
VIEW
5
6
100
AcDbSymbolTable
70
0
0
ENDTAB
0
TABLE
2
UCS
5
7
100
AcDbSymbolTable
70
0
0
ENDTAB
0
TABLE
2
APPID
5
9
100
AcDbSymbolTable
70
2
0
APPID
5
12
100
AcDbSymbolTableRecord
100
AcDbRegAppTableRecord
2
ACAD
70
0
0
ENDTAB
0
TABLE
2
DIMSTYLE
5
A
100
AcDbSymbolTable
70
1
0
ENDTAB
0
TABLE
2
BLOCK_RECORD
5
1
100
AcDbSymbolTable
70
1
0
BLOCK_RECORD
5
1F
100
AcDbSymbolTableRecord
100
AcDbBlockTableRecord
2
*MODEL_SPACE
0
BLOCK_RECORD
5
1B
100
AcDbSymbolTableRecord
100
AcDbBlockTableRecord
2
*PAPER_SPACE
0
ENDTAB
0
ENDSEC
0
SECTION
2
BLOCKS
0
BLOCK
5
20
100
AcDbEntity
100
AcDbBlockBegin
2
*MODEL_SPACE
0
ENDBLK
5
21
100
AcDbEntity
100
AcDbBlockEnd
0
BLOCK
5
1C
100
AcDbEntity
100
AcDbBlockBegin
2
*PAPER_SPACE
0
ENDBLK
5
1D
100
AcDbEntity
100
AcDbBlockEnd
0
ENDSEC
0
SECTION
2
ENTITIES
0
LINE
5
100
100
AcDbEntity
8
0
100
AcDbLine
10
-151.50000138580799
20
-10
30
0
11
-151.50000138580799
21
0
31
0
0
LINE
5
101
100
AcDbEntity
8
0
100
AcDbLine
10
-151.50000138580799
20
0
30
0
11
-180
21
0
31
0
0
SPLINE
5
102
100
AcDbEntity
8
0
100
AcDbSpline
70
4
71
5
72
31
73
25
74
0
42
0.000000001
43
0.0000000001
44
0.0000000001
40
-1
40
-1
40
-1
40
-1
40
-1
40
-1
40
-0.95000000000000029
40
-0.90000000000000024
40
-0.8500000000000002
40
-0.80000000000000016
40
-0.75000000000000011
40
-0.70000000000000007
40
-0.65000000000000002
40
-0.59999999999999998
40
-0.54999999999999993
40
-0.49999999999999994
40
-0.44999999999999996
40
-0.39999999999999997
40
-0.34999999999999998
40
-0.29999999999999999
40
-0.25
40
-0.20000000000000001
40
-0.15000000000000002
40
-0.10000000000000001
40
-0.050000000000000003
40
0
40
0
40
0
40
0
40
0
40
0
41
1
41
1
41
1
41
1
41
1
41
1
41
1
41
1
41
1
41
1
41
1
41
1
41
1
41
1
41
1
41
1
41
1
41
1
41
1
41
1
41
1
41
1
41
1
41
1
41
1
10
-180
20
0
30
0
10
-177.75631264755549
20
-4.1617329213362089
30
0
10
-173.11858514473994
20
-11.87742020738915
30
0
10
-165.71092999192132
20
-21.627625891988341
30
0
10
-155.06772095895653
20
-31.05794343038977
30
0
10
-141.24551329601397
20
-37.441046420128657
30
0
10
-127.83381328773484
20
-39.296141136763715
30
0
10
-115.67690991401233
20
-37.819010579347676
30
0
10
-105.29403972459522
20
-34.517561474726477
30
0
10
-96.60190485222914
20
-31.212816554453013
30
0
10
-88.652520251759711
20
-30.091644177193736
30
0
10
-81.547092645173109
20
-31.40692924207093
30
0
10
-75.440116855013429
20
-34.577598403912717
30
0
10
-69.326551705266027
20
-38.453297087465685
30
0
10
-61.74445550845553
20
-42.29997671272627
30
0
10
-52.75671348718231
20
-45.879905328960618
30
0
10
-42.824202081770821
20
-48.864834201948682
30
0
10
-32.812204316701532
20
-50.566394224886473
30
0
10
-23.484119063465528
20
-49.295107038976091
30
0
10
-15.304179351405329
20
-44.111456870645604
30
0
10
-8.5378741559810578
20
-34.472820404001787
30
0
10
-4.346936692705075
20
-23.030565697442711
30
0
10
-1.9027716143576856
20
-12.334104412682613
30
0
10
-0.58269411848328523
20
-4.2673437643257213
30
0
10
0
20
0
30
0
0
LINE
5
103
100
AcDbEntity
8
0
100
AcDbLine
10
-5.236923471465071e-16
20
1.7559432394923034e-15
30
0
11
-28.000001385808009
21
0
31
0
0
LINE
5
104
100
AcDbEntity
8
0
100
AcDbLine
10
-28.000001385808009
20
0
30
0
11
-28.000001385808009
21
-10
31
0
0
LINE
5
105
100
AcDbEntity
8
0
100
AcDbLine
10
-28.000001385808009
20
-10
30
0
11
-31.500001385808005
21
-10
31
0
0
LINE
5
106
100
AcDbEntity
8
0
100
AcDbLine
10
-31.500001385808005
20
-10
30
0
11
-31.500001385808005
21
0
31
0
0
LINE
5
107
100
AcDbEntity
8
0
100
AcDbLine
10
-31.500001385808005
20
0
30
0
11
-58.000001385808005
21
0
31
0
0
LINE
5
108
100
AcDbEntity
8
0
100
AcDbLine
10
-58.000001385808005
20
0
30
0
11
-58.000001385808005
21
-10
31
0
0
LINE
5
109
100
AcDbEntity
8
0
100
AcDbLine
10
-58.000001385808005
20
-10
30
0
11
-61.500001385808005
21
-10
31
0
0
LINE
5
110
100
AcDbEntity
8
0
100
AcDbLine
10
-61.500001385808005
20
-10
30
0
11
-61.500001385808005
21
0
31
0
0
LINE
5
111
100
AcDbEntity
8
0
100
AcDbLine
10
-61.500001385808005
20
0
30
0
11
-88.000001385808005
21
0
31
0
0
LINE
5
112
100
AcDbEntity
8
0
100
AcDbLine
10
-88.000001385808005
20
0
30
0
11
-88.000001385808005
21
-10
31
0
0
LINE
5
113
100
AcDbEntity
8
0
100
AcDbLine
10
-88.000001385808005
20
-10
30
0
11
-91.500001385808005
21
-10
31
0
0
LINE
5
114
100
AcDbEntity
8
0
100
AcDbLine
10
-91.500001385808005
20
-10
30
0
11
-91.500001385808005
21
0
31
0
0
LINE
5
115
100
AcDbEntity
8
0
100
AcDbLine
10
-91.500001385808005
20
0
30
0
11
-118.00000138580801
21
0
31
0
0
LINE
5
116
100
AcDbEntity
8
0
100
AcDbLine
10
-118.00000138580801
20
0
30
0
11
-118.00000138580801
21
-10
31
0
0
LINE
5
117
100
AcDbEntity
8
0
100
AcDbLine
10
-118.00000138580801
20
-10
30
0
11
-121.50000138580801
21
-10
31
0
0
LINE
5
118
100
AcDbEntity
8
0
100
AcDbLine
10
-121.50000138580801
20
-10
30
0
11
-121.50000138580801
21
0
31
0
0
LINE
5
119
100
AcDbEntity
8
0
100
AcDbLine
10
-121.50000138580801
20
0
30
0
11
-148.00000138580802
21
0
31
0
0
LINE
5
120
100
AcDbEntity
8
0
100
AcDbLine
10
-148.00000138580802
20
0
30
0
11
-148.00000138580802
21
-10
31
0
0
LINE
5
121
100
AcDbEntity
8
0
100
AcDbLine
10
-148.00000138580802
20
-10
30
0
11
-151.50000138580799
21
-10
31
0
0
ENDSEC
0
SECTION
2
OBJECTS
0
DICTIONARY
5
C
100
AcDbDictionary
3
ACAD_GROUP
350
D
3
ACAD_MLINESTYLE
350
17
0
DICTIONARY
5
D
100
AcDbDictionary
0
DICTIONARY
5
1A
330
C
100
AcDbDictionary
0
DICTIONARY
5
17
100
AcDbDictionary
0
ENDSEC
0
EOF
