0
SECTION
2
HEADER
9
$INSUNITS
70
4
9
$ACADVER
1
AC1014
9
$HANDSEED
5
FFFF
0
ENDSEC
0
SECTION
2
TABLES
0
TABLE
2
VPORT
5
8
100
AcDbSymbolTable
0
ENDTAB
0
TABLE
2
LTYPE
5
5
100
AcDbSymbolTable
0
LTYPE
5
14
100
AcDbSymbolTableRecord
100
AcDbLinetypeTableRecord
2
BYBLOCK
70
0
0
LTYPE
5
15
100
AcDbSymbolTableRecord
100
AcDbLinetypeTableRecord
2
BYLAYER
70
0
0
ENDTAB
0
TABLE
2
LAYER
5
2
100
AcDbSymbolTable
70
2
0
LAYER
5
50
100
AcDbSymbolTableRecord
100
AcDbLayerTableRecord
2
0
70
0
6
CONTINUOUS
0
ENDTAB
0
TABLE
2
STYLE
5
3
100
AcDbSymbolTable
70
1
0
STYLE
5
11
100
AcDbSymbolTableRecord
100
AcDbTextStyleTableRecord
2
STANDARD
70
0
0
ENDTAB
0
TABLE
2
VIEW
5
6
100
AcDbSymbolTable
70
0
0
ENDTAB
0
TABLE
2
UCS
5
7
100
AcDbSymbolTable
70
0
0
ENDTAB
0
TABLE
2
APPID
5
9
100
AcDbSymbolTable
70
2
0
APPID
5
12
100
AcDbSymbolTableRecord
100
AcDbRegAppTableRecord
2
ACAD
70
0
0
ENDTAB
0
TABLE
2
DIMSTYLE
5
A
100
AcDbSymbolTable
70
1
0
ENDTAB
0
TABLE
2
BLOCK_RECORD
5
1
100
AcDbSymbolTable
70
1
0
BLOCK_RECORD
5
1F
100
AcDbSymbolTableRecord
100
AcDbBlockTableRecord
2
*MODEL_SPACE
0
BLOCK_RECORD
5
1B
100
AcDbSymbolTableRecord
100
AcDbBlockTableRecord
2
*PAPER_SPACE
0
ENDTAB
0
ENDSEC
0
SECTION
2
BLOCKS
0
BLOCK
5
20
100
AcDbEntity
100
AcDbBlockBegin
2
*MODEL_SPACE
0
ENDBLK
5
21
100
AcDbEntity
100
AcDbBlockEnd
0
BLOCK
5
1C
100
AcDbEntity
100
AcDbBlockBegin
2
*PAPER_SPACE
0
ENDBLK
5
1D
100
AcDbEntity
100
AcDbBlockEnd
0
ENDSEC
0
SECTION
2
ENTITIES
0
LWPOLYLINE
5
100
100
AcDbEntity
8
0
100
AcDbPolyline
90
58
70
1
43
0.0
10
-152.00000007450581
20
-15
10
-148.50000007450581
20
-15
10
-148.50000007450581
20
-25
10
-141.50000007450581
20
-25
10
-141.50000007450581
20
-15
10
-138.00000007450581
20
-15
10
-138.00000007450581
20
-25
10
-131.00000007450581
20
-25
10
-131.00000007450581
20
-15
10
-127.50000007450581
20
-15
10
-127.50000007450581
20
-25
10
-120.00000000000003
20
-25
10
-120.00000000000003
20
-39.999999999999993
10
-112.04642227731036
20
-39.999999999999972
10
-112.04642227731036
20
-29.999999999999957
10
-108.54642227731037
20
-29.999999999999957
10
-108.54642227731037
20
-39.999999999999972
10
-101.54642227731037
20
-39.999999999999972
10
-101.54642227731037
20
-29.999999999999957
10
-98.04642227731037
20
-29.999999999999957
10
-98.04642227731037
20
-39.999999999999972
10
-91.046422277310356
20
-39.999999999999972
10
-91.046422277310356
20
-29.999999999999957
10
-87.54642227731037
20
-29.999999999999957
10
-87.54642227731037
20
-39.999999999999972
10
-80.000000000000071
20
-39.999999999999957
10
-80.000000000000014
20
-54.999999999999957
10
-72.028660625592735
20
-54.999999999999943
10
-72.028660625592721
20
-44.999999999999943
10
-68.528660625592721
20
-44.999999999999943
10
-68.528660625592721
20
-54.999999999999943
10
-61.528660625592728
20
-54.999999999999943
10
-61.528660625592728
20
-44.999999999999943
10
-58.028660625592735
20
-44.999999999999943
10
-58.028660625592735
20
-54.999999999999943
10
-51.028660625592721
20
-54.999999999999943
10
-51.028660625592721
20
-44.999999999999943
10
-47.528660625592721
20
-44.999999999999943
10
-47.528660625592721
20
-54.999999999999943
10
-40.000000000000014
20
-54.999999999999943
10
-40
20
-69.999999999999943
10
-32.010990168531194
20
-69.999999999999943
10
-32.010990168531173
20
-59.999999999999936
10
-28.510990168531176
20
-59.999999999999936
10
-28.510990168531194
20
-69.999999999999943
10
-21.510990168531201
20
-69.999999999999943
10
-21.510990168531183
20
-59.999999999999936
10
-18.010990168531187
20
-59.999999999999936
10
-18.010990168531187
20
-69.999999999999943
10
-11.010990168531194
20
-69.999999999999943
10
-11.010990168531176
20
-59.999999999999936
10
-7.5109901685311797
20
-59.999999999999936
10
-7.5109901685311797
20
-69.999999999999943
10
0
20
-69.999999999999943
10
0
20
0
10
-160
20
0
10
-160.00000000000006
20
-25.000000000000028
10
-152.00000007450581
20
-25
0
ENDSEC
0
SECTION
2
OBJECTS
0
DICTIONARY
5
C
100
AcDbDictionary
3
ACAD_GROUP
350
D
3
ACAD_MLINESTYLE
350
17
0
DICTIONARY
5
D
100
AcDbDictionary
0
DICTIONARY
5
1A
330
C
100
AcDbDictionary
0
DICTIONARY
5
17
100
AcDbDictionary
0
ENDSEC
0
EOF
