0
SECTION
2
HEADER
9
$INSUNITS
70
4
9
$ACADVER
1
AC1014
9
$HANDSEED
5
FFFF
0
ENDSEC
0
SECTION
2
TABLES
0
TABLE
2
VPORT
5
8
100
AcDbSymbolTable
0
ENDTAB
0
TABLE
2
LTYPE
5
5
100
AcDbSymbolTable
0
LTYPE
5
14
100
AcDbSymbolTableRecord
100
AcDbLinetypeTableRecord
2
BYBLOCK
70
0
0
LTYPE
5
15
100
AcDbSymbolTableRecord
100
AcDbLinetypeTableRecord
2
BYLAYER
70
0
0
ENDTAB
0
TABLE
2
LAYER
5
2
100
AcDbSymbolTable
70
2
0
LAYER
5
50
100
AcDbSymbolTableRecord
100
AcDbLayerTableRecord
2
0
70
0
6
CONTINUOUS
0
ENDTAB
0
TABLE
2
STYLE
5
3
100
AcDbSymbolTable
70
1
0
STYLE
5
11
100
AcDbSymbolTableRecord
100
AcDbTextStyleTableRecord
2
STANDARD
70
0
0
ENDTAB
0
TABLE
2
VIEW
5
6
100
AcDbSymbolTable
70
0
0
ENDTAB
0
TABLE
2
UCS
5
7
100
AcDbSymbolTable
70
0
0
ENDTAB
0
TABLE
2
APPID
5
9
100
AcDbSymbolTable
70
2
0
APPID
5
12
100
AcDbSymbolTableRecord
100
AcDbRegAppTableRecord
2
ACAD
70
0
0
ENDTAB
0
TABLE
2
DIMSTYLE
5
A
100
AcDbSymbolTable
70
1
0
ENDTAB
0
TABLE
2
BLOCK_RECORD
5
1
100
AcDbSymbolTable
70
1
0
BLOCK_RECORD
5
1F
100
AcDbSymbolTableRecord
100
AcDbBlockTableRecord
2
*MODEL_SPACE
0
BLOCK_RECORD
5
1B
100
AcDbSymbolTableRecord
100
AcDbBlockTableRecord
2
*PAPER_SPACE
0
ENDTAB
0
ENDSEC
0
SECTION
2
BLOCKS
0
BLOCK
5
20
100
AcDbEntity
100
AcDbBlockBegin
2
*MODEL_SPACE
0
ENDBLK
5
21
100
AcDbEntity
100
AcDbBlockEnd
0
BLOCK
5
1C
100
AcDbEntity
100
AcDbBlockBegin
2
*PAPER_SPACE
0
ENDBLK
5
1D
100
AcDbEntity
100
AcDbBlockEnd
0
ENDSEC
0
SECTION
2
ENTITIES
0
CIRCLE
5
100
100
AcDbEntity
8
0
100
AcDbCircle
10
0
20
0
30
0
40
2.3500000000000001
210
0
220
0
230
1
0
SPLINE
5
101
100
AcDbEntity
8
0
100
AcDbSpline
70
4
71
5
72
26
73
20
74
0
42
0.000000001
43
0.0000000001
44
0.0000000001
40
0
40
0
40
0
40
0
40
0
40
0
40
0.066666666666666666
40
0.13333333333333333
40
0.20000000000000001
40
0.26666666666666666
40
0.33333333333333331
40
0.39999999999999997
40
0.46666666666666662
40
0.53333333333333333
40
0.59999999999999998
40
0.66666666666666663
40
0.73333333333333328
40
0.79999999999999993
40
0.86666666666666659
40
0.93333333333333324
40
1
40
1
40
1
40
1
40
1
40
1
41
1
41
1
41
1
41
1
41
1
41
1
41
1
41
1
41
1
41
1
41
1
41
1
41
1
41
1
41
1
41
1
41
1
41
1
41
1
41
1
10
1.7414282778202992
20
9.6399703087306285
30
0
10
1.4460803113679566
20
10.392450206261399
30
0
10
0.85171411755981319
20
11.879025158615208
30
0
10
-0.050846455051989987
20
14.053733448073107
30
0
10
-1.2764386802484686
20
16.842231135108896
30
0
10
-2.8489222354181858
20
20.136305303986969
30
0
10
-4.4707669542373853
20
23.228150090088604
30
0
10
-6.1586554430314342
20
26.103195269402143
30
0
10
-7.9390137526737439
20
28.743777301488809
30
0
10
-9.8514634551126186
20
31.13053754311867
30
0
10
-11.944758934705032
20
33.24377935705251
30
0
10
-14.269058771188591
20
35.06537961767259
30
0
10
-16.86944126094399
20
36.581121988795559
30
0
10
-19.776845537794841
20
37.784662911908946
30
0
10
-23.002540709400726
20
38.679889123568152
30
0
10
-26.546714741070822
20
39.275206351843181
30
0
10
-29.63222718570503
20
39.519156002229472
30
0
10
-32.084145036420907
20
39.574796313362299
30
0
10
-33.779547866801977
20
39.555713751564348
30
0
10
-34.642447260527952
20
39.532128267390043
30
0
0
SPLINE
5
102
100
AcDbEntity
8
0
100
AcDbSpline
70
4
71
5
72
41
73
35
74
0
42
0.000000001
43
0.0000000001
44
0.0000000001
40
0
40
0
40
0
40
0
40
0
40
0
40
0.033333333333333333
40
0.066666666666666666
40
0.10000000000000001
40
0.13333333333333333
40
0.16666666666666666
40
0.19999999999999998
40
0.23333333333333331
40
0.26666666666666666
40
0.29999999999999999
40
0.33333333333333331
40
0.36666666666666664
40
0.39999999999999997
40
0.43333333333333329
40
0.46666666666666662
40
0.49999999999999994
40
0.53333333333333333
40
0.56666666666666665
40
0.59999999999999998
40
0.6333333333333333
40
0.66666666666666663
40
0.69999999999999996
40
0.73333333333333328
40
0.76666666666666661
40
0.79999999999999993
40
0.83333333333333326
40
0.86666666666666659
40
0.89999999999999991
40
0.93333333333333324
40
0.96666666666666656
40
1
40
1
40
1
40
1
40
1
40
1
41
1
41
1
41
1
41
1
41
1
41
1
41
1
41
1
41
1
41
1
41
1
41
1
41
1
41
1
41
1
41
1
41
1
41
1
41
1
41
1
41
1
41
1
41
1
41
1
41
1
41
1
41
1
41
1
41
1
41
1
41
1
41
1
41
1
41
1
41
1
10
-34.642447260527952
20
39.532128267390043
30
0
10
-34.711279575614157
20
39.936301382192447
30
0
10
-34.83996016481457
20
40.762328602323556
30
0
10
-35.006028502648185
20
42.054411604452156
30
0
10
-35.173453970893874
20
43.883472356145234
30
0
10
-35.289730457502429
20
46.345017534997268
30
0
10
-35.305026326296037
20
48.974186496829759
30
0
10
-35.203982666828239
20
51.754020000646321
30
0
10
-34.961970055274783
20
54.655415376331966
30
0
10
-34.54808457684257
20
57.642583317043446
30
0
10
-33.927699953449874
20
60.677915547354146
30
0
10
-33.065210913107343
20
63.72666858275516
30
0
10
-31.926677201444988
20
66.762586828538005
30
0
10
-30.482730935016594
20
69.770348828419699
30
0
10
-28.712095562528166
20
72.740286118006708
30
0
10
-26.604967426403494
20
75.664778691811733
30
0
10
-24.166860072822619
20
78.533819055704242
30
0
10
-21.421832967080952
20
81.331383375869052
30
0
10
-18.417744027554512
20
84.030266168956146
30
0
10
-15.220727681136598
20
86.595129771587779
30
0
10
-11.906242648845042
20
88.988186944203619
30
0
10
-8.5515390415631956
20
91.173887458052349
30
0
10
-5.2272549071373557
20
93.124329987973681
30
0
10
-1.9901544216349374
20
94.823832329205047
30
0
10
1.1266376446162845
20
96.275513615109048
30
0
10
4.1155899599440948
20
97.501744447344279
30
0
10
6.9858633702585831
20
98.536087474699698
30
0
10
9.7570316545214872
20
99.417258795790644
30
0
10
12.452224993214799
20
100.18275795111718
30
0
10
15.090714875552715
20
100.86174783148428
30
0
10
17.683639915530019
20
101.47133673441046
30
0
10
19.726255158251696
20
101.91067195487483
30
0
10
21.241285081688218
20
102.21438849146222
30
0
10
22.243797463289198
20
102.40543114556414
30
0
10
22.743176533677186
20
102.49809347003983
30
0
0
SPLINE
5
103
100
AcDbEntity
8
0
100
AcDbSpline
70
4
71
5
72
26
73
20
74
0
42
0.000000001
43
0.0000000001
44
0.0000000001
40
0
40
0
40
0
40
0
40
0
40
0
40
0.066666666666666666
40
0.13333333333333333
40
0.20000000000000001
40
0.26666666666666666
40
0.33333333333333331
40
0.39999999999999997
40
0.46666666666666662
40
0.53333333333333333
40
0.59999999999999998
40
0.66666666666666663
40
0.73333333333333328
40
0.79999999999999993
40
0.86666666666666659
40
0.93333333333333324
40
1
40
1
40
1
40
1
40
1
40
1
41
1
41
1
41
1
41
1
41
1
41
1
41
1
41
1
41
1
41
1
41
1
41
1
41
1
41
1
41
1
41
1
41
1
41
1
41
1
41
1
10
22.743176533677186
20
102.49809347003983
30
0
10
22.417993453880833
20
102.58122179879821
30
0
10
21.753012792813745
20
102.74461066274966
30
0
10
20.711697414604593
20
102.9810906121031
30
0
10
19.234958223960156
20
103.27906516456073
30
0
10
17.240334300697871
20
103.6216634155777
30
0
10
15.099446573215223
20
103.93275622533558
30
0
10
12.822451945478461
20
104.21012521508315
30
0
10
10.432763996571119
20
104.45112352143612
30
0
10
7.9694965715046777
20
104.65284629039007
30
0
10
5.4799807187887408
20
104.81224131527406
30
0
10
3.0146955346662132
20
104.92632159480632
30
0
10
0.62122699496435574
20
104.99251924475587
30
0
10
-1.6607540063756079
20
105.00905688350784
30
0
10
-3.8070495112636182
20
104.97572342743396
30
0
10
-5.8071304051204331
20
104.89349715513647
30
0
10
-7.2881051960789964
20
104.78966287843019
30
0
10
-8.3324995134798545
20
104.69090291781808
30
0
10
-8.9994890288058453
20
104.61584775451522
30
0
10
-9.3256656297615628
20
104.57601639189033
30
0
0
SPLINE
5
104
100
AcDbEntity
8
0
100
AcDbSpline
70
4
71
5
72
31
73
25
74
0
42
0.000000001
43
0.0000000001
44
0.0000000001
40
0
40
0
40
0
40
0
40
0
40
0
40
0.050000000000000003
40
0.10000000000000001
40
0.15000000000000002
40
0.20000000000000001
40
0.25
40
0.29999999999999999
40
0.34999999999999998
40
0.39999999999999997
40
0.44999999999999996
40
0.49999999999999994
40
0.54999999999999993
40
0.59999999999999998
40
0.65000000000000002
40
0.70000000000000007
40
0.75000000000000011
40
0.80000000000000016
40
0.8500000000000002
40
0.90000000000000024
40
0.95000000000000029
40
1
40
1
40
1
40
1
40
1
40
1
41
1
41
1
41
1
41
1
41
1
41
1
41
1
41
1
41
1
41
1
41
1
41
1
41
1
41
1
41
1
41
1
41
1
41
1
41
1
41
1
41
1
41
1
41
1
41
1
41
1
10
-9.3256656297615628
20
104.57601639189033
30
0
10
-9.6257800714078208
20
104.34906734733454
30
0
10
-10.253396006904465
20
103.85858208011206
30
0
10
-11.276972337146002
20
103.01309761371535
30
0
10
-12.806792170881355
20
101.66533291199444
30
0
10
-14.988449847394197
20
99.612424881111991
30
0
10
-17.41676461230151
20
97.197465828497002
30
0
10
-20.037775733735241
20
94.44169059595167
30
0
10
-22.771369757562656
20
91.378998968796239
30
0
10
-25.524804221819615
20
88.048983711842595
30
0
10
-28.203597383500494
20
84.49164590386458
30
0
10
-30.722423603165158
20
80.742188347632847
30
0
10
-33.018563669912908
20
76.824884233288671
30
0
10
-35.052029578568032
20
72.753233293272132
30
0
10
-36.799454155521978
20
68.53317869723432
30
0
10
-38.250503590473684
20
64.165405973048038
30
0
10
-39.40381234123204
20
59.648028651305978
30
0
10
-40.263575655789467
20
54.979356726320134
30
0
10
-40.836454743487103
20
50.160371824614884
30
0
10
-41.13020772070783
20
45.193455226386703
30
0
10
-41.152395950764287
20
40.081629008507697
30
0
10
-40.957975426156935
20
35.878545586134479
30
0
10
-40.694747066737577
20
32.663280544743031
30
0
10
-40.467290508988157
20
30.491905390452864
30
0
10
-40.340569454285593
20
29.399251528238118
30
0
0
SPLINE
5
105
100
AcDbEntity
8
0
100
AcDbSpline
70
4
71
5
72
36
73
30
74
0
42
0.000000001
43
0.0000000001
44
0.0000000001
40
0
40
0
40
0
40
0
40
0
40
0
40
0.040000000000000001
40
0.080000000000000002
40
0.12
40
0.16
40
0.20000000000000001
40
0.24000000000000002
40
0.28000000000000003
40
0.32000000000000001
40
0.35999999999999999
40
0.39999999999999997
40
0.43999999999999995
40
0.47999999999999993
40
0.51999999999999991
40
0.55999999999999994
40
0.59999999999999998
40
0.64000000000000001
40
0.68000000000000005
40
0.72000000000000008
40
0.76000000000000012
40
0.80000000000000016
40
0.84000000000000019
40
0.88000000000000023
40
0.92000000000000026
40
0.9600000000000003
40
1
40
1
40
1
40
1
40
1
40
1
41
1
41
1
41
1
41
1
41
1
41
1
41
1
41
1
41
1
41
1
41
1
41
1
41
1
41
1
41
1
41
1
41
1
41
1
41
1
41
1
41
1
41
1
41
1
41
1
41
1
41
1
41
1
41
1
41
1
41
1
10
-40.340569454285593
20
29.399251528238118
30
0
10
-40.151921514233628
20
29.656507156481851
30
0
10
-39.745355748546572
20
30.14927754966233
30
0
10
-39.047694603671658
20
30.823210092561592
30
0
10
-37.941421071517695
20
31.591004370437457
30
0
10
-36.268305648660245
20
32.331448092212447
30
0
10
-34.319573104036252
20
32.852162023633305
30
0
10
-32.127454688906639
20
33.154837684309626
30
0
10
-29.751212091433217
20
33.24515177336152
30
0
10
-27.276120497646716
20
33.132846047425851
30
0
10
-24.798003971631903
20
32.829319454970047
30
0
10
-22.411866816992312
20
32.346014059036051
30
0
10
-20.198177062166245
20
31.692410888085579
30
0
10
-18.211693873798474
20
30.874634473938386
30
0
10
-16.464713261015305
20
29.892918926643116
30
0
10
-14.929262261531235
20
28.743335198936126
30
0
10
-13.555475765723113
20
27.423066916180453
30
0
10
-12.285713704468254
20
25.935076374823957
30
0
10
-11.068884796084497
20
24.292458645716671
30
0
10
-9.877937178521357
20
22.524801121410853
30
0
10
-8.7119904803811874
20
20.676605923835481
30
0
10
-7.5864440344485393
20
18.799656073044908
30
0
10
-6.5266410454048964
20
16.947136965575083
30
0
10
-5.5604504961490306
20
15.167375934395688
30
0
10
-4.7106989667908108
20
13.497027358506173
30
0
10
-3.9895485279462539
20
11.956439283447516
30
0
10
-3.5198341761964276
20
10.835338312851018
30
0
10
-3.2283071529179628
20
10.058201586811595
30
0
10
-3.0608929744555624
20
9.5683466965250474
30
0
10
-2.9839199716362179
20
9.3304781015160501
30
0
0
ARC
5
106
100
AcDbEntity
8
0
100
AcDbCircle
10
0
20
0
30
0
40
9.7959991833401077
210
0
220
0
230
1
100
AcDbArc
50
107.73446054463072
51
124.76014314124122
0
SPLINE
5
107
100
AcDbEntity
8
0
100
AcDbSpline
70
4
71
5
72
26
73
20
74
0
42
0.000000001
43
0.0000000001
44
0.0000000001
40
0
40
0
40
0
40
0
40
0
40
0
40
0.066666666666666666
40
0.13333333333333333
40
0.20000000000000001
40
0.26666666666666666
40
0.33333333333333331
40
0.39999999999999997
40
0.46666666666666662
40
0.53333333333333333
40
0.59999999999999998
40
0.66666666666666663
40
0.73333333333333328
40
0.79999999999999993
40
0.86666666666666659
40
0.93333333333333324
40
1
40
1
40
1
40
1
40
1
40
1
41
1
41
1
41
1
41
1
41
1
41
1
41
1
41
1
41
1
41
1
41
1
41
1
41
1
41
1
41
1
41
1
41
1
41
1
41
1
41
1
10
-5.5851126315436561
20
8.0478641199371506
30
0
10
-6.3260388196848139
20
8.371105208300877
30
0
10
-7.7974864153903152
20
9.0019920717047803
30
0
10
-9.9734440952983228
20
9.9015363489600379
30
0
10
-12.811834292532222
20
11.006677399381584
30
0
10
-16.253010260239972
20
12.224025796761271
30
0
10
-19.586092073572669
20
13.26347281267897
30
0
10
-22.812573412390861
20
14.102919358872924
30
0
10
-25.938650307244636
20
14.711189386347456
30
0
10
-28.978650812438325
20
15.046577584995225
30
0
10
-31.95312185800509
20
15.06068177326733
30
0
10
-34.884715930791188
20
14.705219494276545
30
0
10
-37.795255732131999
20
13.93826311124876
30
0
10
-40.702132960116366
20
12.733449779611316
30
0
10
-43.616064414962239
20
11.085559374693318
30
0
10
-46.543126755532526
20
9.0004027322668811
30
0
10
-48.897411980623609
20
6.9911144112846575
30
0
10
-50.670523361084115
20
5.2966903134359153
30
0
10
-51.855860790437561
20
4.0843660663764441
30
0
10
-52.449345347424547
20
3.457526597791269
30
0
0
SPLINE
5
108
100
AcDbEntity
8
0
100
AcDbSpline
70
4
71
5
72
41
73
35
74
0
42
0.000000001
43
0.0000000001
44
0.0000000001
40
0
40
0
40
0
40
0
40
0
40
0
40
0.033333333333333333
40
0.066666666666666666
40
0.10000000000000001
40
0.13333333333333333
40
0.16666666666666666
40
0.19999999999999998
40
0.23333333333333331
40
0.26666666666666666
40
0.29999999999999999
40
0.33333333333333331
40
0.36666666666666664
40
0.39999999999999997
40
0.43333333333333329
40
0.46666666666666662
40
0.49999999999999994
40
0.53333333333333333
40
0.56666666666666665
40
0.59999999999999998
40
0.6333333333333333
40
0.66666666666666663
40
0.69999999999999996
40
0.73333333333333328
40
0.76666666666666661
40
0.79999999999999993
40
0.83333333333333326
40
0.86666666666666659
40
0.89999999999999991
40
0.93333333333333324
40
0.96666666666666656
40
1
40
1
40
1
40
1
40
1
40
1
41
1
41
1
41
1
41
1
41
1
41
1
41
1
41
1
41
1
41
1
41
1
41
1
41
1
41
1
41
1
41
1
41
1
41
1
41
1
41
1
41
1
41
1
41
1
41
1
41
1
41
1
41
1
41
1
41
1
41
1
41
1
41
1
41
1
41
1
41
1
10
-52.449345347424547
20
3.457526597791269
30
0
10
-52.783810694437733
20
3.6946483512844908
30
0
10
-53.458891060469192
20
4.1877468828620206
30
0
10
-54.489959760953695
20
4.9839594877077724
30
0
10
-55.90168870561773
20
6.158913064491931
30
0
10
-57.724483885952949
20
7.8172684604713787
30
0
10
-59.594402900296174
20
9.6655558497074097
30
0
10
-61.488593364607581
20
11.702643627622159
30
0
10
-63.369060950895808
20
13.925368731432116
30
0
10
-65.188646429882397
20
16.330276667289311
30
0
10
-66.896272258945146
20
18.915258844647312
30
0
10
-68.442194355315792
20
21.680924639274583
30
0
10
-69.783847825911465
20
24.632707926126454
30
0
10
-70.889632535562811
20
27.780541029100554
30
0
10
-71.737667053833448
20
31.132632105160845
30
0
10
-72.315630990417674
20
34.690525229507763
30
0
10
-72.620346644245458
20
38.443245369287645
30
0
10
-72.657496064827413
20
42.362449351887975
30
0
10
-72.441682729018851
20
46.395059336930387
30
0
10
-71.994683237140535
20
50.469323721283736
30
0
10
-71.343135349189197
20
54.505165518281927
30
0
10
-70.516525334595372
20
58.422822842849406
30
0
10
-69.545072619775937
20
62.152617836119063
30
0
10
-68.457826545224592
20
65.643323170933016
30
0
10
-67.280415421016798
20
68.87372165791767
30
0
10
-66.033983106980514
20
71.854306245506365
30
0
10
-64.735784283403618
20
74.615287006514919
30
0
10
-63.399354614320529
20
77.197881108651913
30
0
10
-62.034854771641335
20
79.644960238765435
30
0
10
-60.649279032507806
20
81.990772675412856
30
0
10
-59.246848600623409
20
84.255292001277624
30
0
10
-58.113158424745095
20
86.010296004367191
30
0
10
-57.256630514765241
20
87.296343959516008
30
0
10
-56.682834767726504
20
88.140314818988145
30
0
10
-56.395242598671835
20
88.55895130404366
30
0
0
SPLINE
5
109
100
AcDbEntity
8
0
100
AcDbSpline
70
4
71
5
72
26
73
20
74
0
42
0.000000001
43
0.0000000001
44
0.0000000001
40
0
40
0
40
0
40
0
40
0
40
0
40
0.066666666666666666
40
0.13333333333333333
40
0.20000000000000001
40
0.26666666666666666
40
0.33333333333333331
40
0.39999999999999997
40
0.46666666666666662
40
0.53333333333333333
40
0.59999999999999998
40
0.66666666666666663
40
0.73333333333333328
40
0.79999999999999993
40
0.86666666666666659
40
0.93333333333333324
40
1
40
1
40
1
40
1
40
1
40
1
41
1
41
1
41
1
41
1
41
1
41
1
41
1
41
1
41
1
41
1
41
1
41
1
41
1
41
1
41
1
41
1
41
1
41
1
41
1
41
1
10
-56.395242598671835
20
88.55895130404366
30
0
10
-56.683962364483193
20
88.387792748160194
30
0
10
-57.269708072929035
20
88.033113787021762
30
0
10
-58.173245813994782
20
87.464009197528654
30
0
10
-59.428157936400112
20
86.630496728440761
30
0
10
-61.080823584989723
20
85.462338172909696
30
0
10
-62.814635650239417
20
84.168477778419174
30
0
10
-64.620843485807058
20
82.754528929975081
30
0
10
-66.481019576093743
20
81.235175913066968
30
0
10
-68.365452214086375
20
79.636022350774866
30
0
10
-70.238515058390391
20
77.988378112427384
30
0
10
-72.062401868887321
20
76.325825180427287
30
0
10
-73.801648511032582
20
74.680196152621207
30
0
10
-75.426946628116951
20
73.078285788540398
30
0
10
-76.921036421220478
20
71.537055369775885
30
0
10
-78.277164429456633
20
70.064641852077827
30
0
10
-79.250949825734196
20
68.944012613446816
30
0
10
-79.919614291944697
20
68.135680471519876
30
0
10
-80.338175086278966
20
67.610975647315939
30
0
10
-80.540651746063901
20
67.352168934298504
30
0
0
SPLINE
5
110
100
AcDbEntity
8
0
100
AcDbSpline
70
4
71
5
72
31
73
25
74
0
42
0.000000001
43
0.0000000001
44
0.0000000001
40
0
40
0
40
0
40
0
40
0
40
0
40
0.050000000000000003
40
0.10000000000000001
40
0.15000000000000002
40
0.20000000000000001
40
0.25
40
0.29999999999999999
40
0.34999999999999998
40
0.39999999999999997
40
0.44999999999999996
40
0.49999999999999994
40
0.54999999999999993
40
0.59999999999999998
40
0.65000000000000002
40
0.70000000000000007
40
0.75000000000000011
40
0.80000000000000016
40
0.8500000000000002
40
0.90000000000000024
40
0.95000000000000029
40
1
40
1
40
1
40
1
40
1
40
1
41
1
41
1
41
1
41
1
41
1
41
1
41
1
41
1
41
1
41
1
41
1
41
1
41
1
41
1
41
1
41
1
41
1
41
1
41
1
41
1
41
1
41
1
41
1
41
1
41
1
10
-80.540651746063901
20
67.352168934298504
30
0
10
-80.59238749449824
20
66.979478769089624
30
0
10
-80.68935351994908
20
66.188861826594746
30
0
10
-80.815283484552012
20
64.867236262842482
30
0
10
-80.944015902947314
20
62.832476724383767
30
0
10
-81.035055650439347
20
59.83818659730359
30
0
10
-81.044499565160379
20
56.413474837788669
30
0
10
-80.949206948328055
20
52.611512745896775
30
0
10
-80.716499801342593
20
48.512919856391349
30
0
10
-80.308795612928506
20
44.211271305516277
30
0
10
-79.687570735962026
20
39.801660808505318
30
0
10
-78.817382972739765
20
35.369314844171413
30
0
10
-77.671046881271749
20
30.975746329201911
30
0
10
-76.229832424284325
20
26.658776805573588
30
0
10
-74.481418970423675
20
22.43913181576238
30
0
10
-72.418984153758231
20
18.324603208513793
30
0
10
-70.040228454834889
20
14.314822632660331
30
0
10
-67.346923347476377
20
10.405628585416595
30
0
10
-64.344473132751915
20
6.5930049952614738
30
0
10
-61.040047446740793
20
2.8731498648702041
30
0
10
-57.441129911766893
20
-0.75714656597676633
30
0
10
-54.331625050565009
20
-3.5916992844704634
30
0
10
-51.871958778542762
20
-5.6791044405923436
30
0
10
-50.175728608037545
20
-7.0536624622699335
30
0
10
-49.313500335478381
20
-7.7366801006260841
30
0
0
SPLINE
5
111
100
AcDbEntity
8
0
100
AcDbSpline
70
4
71
5
72
36
73
30
74
0
42
0.000000001
43
0.0000000001
44
0.0000000001
40
0
40
0
40
0
40
0
40
0
40
0
40
0.040000000000000001
40
0.080000000000000002
40
0.12
40
0.16
40
0.20000000000000001
40
0.24000000000000002
40
0.28000000000000003
40
0.32000000000000001
40
0.35999999999999999
40
0.39999999999999997
40
0.43999999999999995
40
0.47999999999999993
40
0.51999999999999991
40
0.55999999999999994
40
0.59999999999999998
40
0.64000000000000001
40
0.68000000000000005
40
0.72000000000000008
40
0.76000000000000012
40
0.80000000000000016
40
0.84000000000000019
40
0.88000000000000023
40
0.92000000000000026
40
0.9600000000000003
40
1
40
1
40
1
40
1
40
1
40
1
41
1
41
1
41
1
41
1
41
1
41
1
41
1
41
1
41
1
41
1
41
1
41
1
41
1
41
1
41
1
41
1
41
1
41
1
41
1
41
1
41
1
41
1
41
1
41
1
41
1
41
1
41
1
41
1
41
1
41
1
10
-49.313500335478381
20
-7.7366801006260841
30
0
10
-49.362013297041059
20
-7.421378663723087
30
0
10
-49.422969173712545
20
-6.7854519672116718
30
0
10
-49.406190518348538
20
-5.8155887695442523
30
0
10
-49.166849542357653
20
-4.4904227126657368
30
0
10
-48.507351057900323
20
-2.7837786747092537
30
0
10
-47.497589412842217
20
-1.0376163257341564
30
0
10
-46.161551628503538
20
0.72646948291925983
30
0
10
-44.545156078890848
20
2.4705884421338467
30
0
10
-42.715589888491714
20
4.1413303517802191
30
0
10
-40.748671176580693
20
5.678997640102212
30
0
10
-38.719668890845128
20
7.0245028801457696
30
0
10
-36.692186619380244
20
8.1276506828490156
30
0
10
-34.709275638234011
20
8.9540511681244936
30
0
10
-32.779796079644342
20
9.4951752853391529
30
0
10
-30.881189816325865
20
9.7680246498510321
30
0
10
-28.976205413515412
20
9.8058677412155628
30
0
10
-27.026179847374596
20
9.6515569030845114
30
0
10
-25.004245739564539
20
9.3504787405940899
30
0
10
-22.912195980896762
20
8.9426832547561936
30
0
10
-20.780875806978706
20
8.4602607143499604
30
0
10
-18.657790315078365
20
7.9289382713688061
30
0
10
-16.598467611633318
20
7.3684033284761199
30
0
10
-14.656786628295622
20
6.7931221237384429
30
0
10
-12.874806754603433
20
6.2128723875184235
30
0
10
-11.275516114149809
20
5.6334424781944401
30
0
10
-10.150639812103474
20
5.1728425828332369
30
0
10
-9.3949804281541969
20
4.8294646689985408
30
0
10
-8.9302210125794641
20
4.6014646551344951
30
0
10
-8.7075943837565219
20
4.4876942908326471
30
0
0
ARC
5
112
100
AcDbEntity
8
0
100
AcDbCircle
10
0
20
0
30
0
40
9.7959991833401094
210
0
220
0
230
1
100
AcDbArc
50
152.73446054463074
51
169.7601431412412
0
SPLINE
5
113
100
AcDbEntity
8
0
100
AcDbSpline
70
4
71
5
72
26
73
20
74
0
42
0.000000001
43
0.0000000001
44
0.0000000001
40
0
40
0
40
0
40
0
40
0
40
0
40
0.066666666666666666
40
0.13333333333333333
40
0.20000000000000001
40
0.26666666666666666
40
0.33333333333333331
40
0.39999999999999997
40
0.46666666666666662
40
0.53333333333333333
40
0.59999999999999998
40
0.66666666666666663
40
0.73333333333333328
40
0.79999999999999993
40
0.86666666666666659
40
0.93333333333333324
40
1
40
1
40
1
40
1
40
1
40
1
41
1
41
1
41
1
41
1
41
1
41
1
41
1
41
1
41
1
41
1
41
1
41
1
41
1
41
1
41
1
41
1
41
1
41
1
41
1
41
1
10
-9.6399703087306285
20
1.7414282778203014
30
0
10
-10.392450206263815
20
1.4460803113679799
30
0
10
-11.879025158621729
20
0.85171411755987503
30
0
10
-14.053733448083555
20
-0.050846455051883371
30
0
10
-16.842231135120663
20
-1.2764386802483334
30
0
10
-20.136305303996039
20
-2.8489222354180628
30
0
10
-23.22815009009318
20
-4.4707669542373232
30
0
10
-26.103195269402555
20
-6.1586554430314369
30
0
10
-28.743777301486997
20
-7.9390137526737528
30
0
10
-31.130537543116738
20
-9.8514634551125795
30
0
10
-33.243779357051793
20
-11.944758934704964
30
0
10
-35.065379617673031
20
-14.269058771188547
30
0
10
-36.5811219887958
20
-16.86944126094399
30
0
10
-37.784662911907184
20
-19.776845537794912
30
0
10
-38.67988912356347
20
-23.00254070940084
30
0
10
-39.275206351836452
20
-26.546714741070939
30
0
10
-39.519156002223255
20
-29.632227185705126
30
0
10
-39.574796313358391
20
-32.084145036420963
30
0
10
-39.555713751562905
20
-33.779547866801998
30
0
10
-39.532128267390043
20
-34.642447260527952
30
0
0
SPLINE
5
114
100
AcDbEntity
8
0
100
AcDbSpline
70
4
71
5
72
41
73
35
74
0
42
0.000000001
43
0.0000000001
44
0.0000000001
40
0
40
0
40
0
40
0
40
0
40
0
40
0.033333333333333333
40
0.066666666666666666
40
0.10000000000000001
40
0.13333333333333333
40
0.16666666666666666
40
0.19999999999999998
40
0.23333333333333331
40
0.26666666666666666
40
0.29999999999999999
40
0.33333333333333331
40
0.36666666666666664
40
0.39999999999999997
40
0.43333333333333329
40
0.46666666666666662
40
0.49999999999999994
40
0.53333333333333333
40
0.56666666666666665
40
0.59999999999999998
40
0.6333333333333333
40
0.66666666666666663
40
0.69999999999999996
40
0.73333333333333328
40
0.76666666666666661
40
0.79999999999999993
40
0.83333333333333326
40
0.86666666666666659
40
0.89999999999999991
40
0.93333333333333324
40
0.96666666666666656
40
1
40
1
40
1
40
1
40
1
40
1
41
1
41
1
41
1
41
1
41
1
41
1
41
1
41
1
41
1
41
1
41
1
41
1
41
1
41
1
41
1
41
1
41
1
41
1
41
1
41
1
41
1
41
1
41
1
41
1
41
1
41
1
41
1
41
1
41
1
41
1
41
1
41
1
41
1
41
1
41
1
10
-39.532128267390043
20
-34.642447260527952
30
0
10
-39.936301382192084
20
-34.711279575614086
30
0
10
-40.762328602322533
20
-34.839960164814343
30
0
10
-42.054411604450522
20
-35.00602850264778
30
0
10
-43.883472356143621
20
-35.173453970893341
30
0
10
-46.345017534996352
20
-35.289730457501939
30
0
10
-48.974186496829937
20
-35.305026326296037
30
0
10
-51.75402000064728
20
-35.203982666828878
30
0
10
-54.655415376333529
20
-34.961970055275962
30
0
10
-57.64258331704486
20
-34.548084576843664
30
0
10
-60.677915547354822
20
-33.927699953450414
30
0
10
-63.726668582754854
20
-33.065210913107073
30
0
10
-66.762586828537025
20
-31.926677201444104
30
0
10
-69.770348828418591
20
-30.4827309350155
30
0
10
-72.74028611800594
20
-28.712095562527349
30
0
10
-75.664778691811478
20
-26.604967426403064
30
0
10
-78.533819055704328
20
-24.166860072822566
30
0
10
-81.331383375869052
20
-21.42183296708113
30
0
10
-84.030266168955663
20
-18.41774402755485
30
0
10
-86.595129771586684
20
-15.220727681137005
30
0
10
-88.988186944202269
20
-11.906242648845449
30
0
10
-91.173887458051155
20
-8.5515390415634887
30
0
10
-93.124329987973113
20
-5.227254907137489
30
0
10
-94.823832329205516
20
-1.9901544216348404
30
0
10
-96.275513615110398
20
1.126637644616681
30
0
10
-97.501744447346098
20
4.1155899599447494
30
0
10
-98.536087474701347
20
6.9858633702592856
30
0
10
-99.417258795791497
20
9.7570316545219367
30
0
10
-100.18275795111671
20
12.452224993214635
30
0
10
-100.86174783148246
20
15.090714875551765
30
0
10
-101.47133673440793
20
17.683639915528502
30
0
10
-101.91067195487263
20
19.726255158250265
30
0
10
-102.21438849146085
20
21.24128508168733
30
0
10
-102.40543114556363
20
22.243797463288878
30
0
10
-102.49809347003983
20
22.743176533677207
30
0
0
SPLINE
5
115
100
AcDbEntity
8
0
100
AcDbSpline
70
4
71
5
72
26
73
20
74
0
42
0.000000001
43
0.0000000001
44
0.0000000001
40
0
40
0
40
0
40
0
40
0
40
0
40
0.066666666666666666
40
0.13333333333333333
40
0.20000000000000001
40
0.26666666666666666
40
0.33333333333333331
40
0.39999999999999997
40
0.46666666666666662
40
0.53333333333333333
40
0.59999999999999998
40
0.66666666666666663
40
0.73333333333333328
40
0.79999999999999993
40
0.86666666666666659
40
0.93333333333333324
40
1
40
1
40
1
40
1
40
1
40
1
41
1
41
1
41
1
41
1
41
1
41
1
41
1
41
1
41
1
41
1
41
1
41
1
41
1
41
1
41
1
41
1
41
1
41
1
41
1
41
1
10
-102.49809347003983
20
22.743176533677207
30
0
10
-102.58122179879811
20
22.417993453883199
30
0
10
-102.74461066274932
20
21.753012792820083
30
0
10
-102.98109061210252
20
20.711697414614719
30
0
10
-103.27906516455988
20
19.234958223971478
30
0
10
-103.6216634155768
20
17.240334300706238
30
0
10
-103.93275622533505
20
15.099446573218575
30
0
10
-104.21012521508337
20
12.822451945476956
30
0
10
-104.45112352143704
20
10.432763996566393
30
0
10
-104.65284629039144
20
7.9694965714988228
30
0
10
-104.81224131527551
20
5.4799807187836471
30
0
10
-104.92632159480755
20
3.0146955346631521
30
0
10
-104.99251924475622
20
0.62122699496375522
30
0
10
-105.0090568835071
20
-1.6607540063740971
30
0
10
-104.97572342743226
20
-3.8070495112608387
30
0
10
-104.89349715513433
20
-5.8071304051174302
30
0
10
-104.78966287842836
20
-7.2881051960766774
30
0
10
-104.69090291781694
20
-8.332499513478508
30
0
10
-104.61584775451479
20
-8.9994890288053462
30
0
10
-104.57601639189033
20
-9.3256656297615379
30
0
0
SPLINE
5
116
100
AcDbEntity
8
0
100
AcDbSpline
70
4
71
5
72
31
73
25
74
0
42
0.000000001
43
0.0000000001
44
0.0000000001
40
0
40
0
40
0
40
0
40
0
40
0
40
0.050000000000000003
40
0.10000000000000001
40
0.15000000000000002
40
0.20000000000000001
40
0.25
40
0.29999999999999999
40
0.34999999999999998
40
0.39999999999999997
40
0.44999999999999996
40
0.49999999999999994
40
0.54999999999999993
40
0.59999999999999998
40
0.65000000000000002
40
0.70000000000000007
40
0.75000000000000011
40
0.80000000000000016
40
0.8500000000000002
40
0.90000000000000024
40
0.95000000000000029
40
1
40
1
40
1
40
1
40
1
40
1
41
1
41
1
41
1
41
1
41
1
41
1
41
1
41
1
41
1
41
1
41
1
41
1
41
1
41
1
41
1
41
1
41
1
41
1
41
1
41
1
41
1
41
1
41
1
41
1
41
1
10
-104.57601639189033
20
-9.3256656297615379
30
0
10
-104.34906734733438
20
-9.6257800714074033
30
0
10
-103.8585820801116
20
-10.253396006903444
30
0
10
-103.01309761371468
20
-11.276972337144587
30
0
10
-101.6653329119938
20
-12.806792170880243
30
0
10
-99.612424881111806
20
-14.988449847394003
30
0
10
-97.197465828497371
20
-17.416764612301982
30
0
10
-94.441690595952707
20
-20.037775733735824
30
0
10
-91.378998968797703
20
-22.771369757563008
30
0
10
-88.04898371184396
20
-25.524804221819572
30
0
10
-84.491645903865134
20
-28.203597383500284
30
0
10
-80.742188347631938
20
-30.722423603165311
30
0
10
-76.824884233286056
20
-33.01856366991386
30
0
10
-72.753233293268195
20
-35.052029578569808
30
0
10
-68.533178697230198
20
-36.799454155524217
30
0
10
-64.165405973045083
20
-38.250503590475383
30
0
10
-59.64802865130607
20
-39.403812341232054
30
0
10
-54.979356726324795
20
-40.263575655786639
30
0
10
-50.160371824624789
20
-40.836454743481106
30
0
10
-45.193455226400673
20
-41.130207720699275
30
0
10
-40.081629008522619
20
-41.152395950754951
30
0
10
-35.878545586146316
20
-40.957975426149353
30
0
10
-32.663280544749945
20
-40.694747066733044
30
0
10
-30.491905390455351
20
-40.467290508986508
30
0
10
-29.399251528238125
20
-40.340569454285571
30
0
0
SPLINE
5
117
100
AcDbEntity
8
0
100
AcDbSpline
70
4
71
5
72
36
73
30
74
0
42
0.000000001
43
0.0000000001
44
0.0000000001
40
0
40
0
40
0
40
0
40
0
40
0
40
0.040000000000000001
40
0.080000000000000002
40
0.12
40
0.16
40
0.20000000000000001
40
0.24000000000000002
40
0.28000000000000003
40
0.32000000000000001
40
0.35999999999999999
40
0.39999999999999997
40
0.43999999999999995
40
0.47999999999999993
40
0.51999999999999991
40
0.55999999999999994
40
0.59999999999999998
40
0.64000000000000001
40
0.68000000000000005
40
0.72000000000000008
40
0.76000000000000012
40
0.80000000000000016
40
0.84000000000000019
40
0.88000000000000023
40
0.92000000000000026
40
0.9600000000000003
40
1
40
1
40
1
40
1
40
1
40
1
41
1
41
1
41
1
41
1
41
1
41
1
41
1
41
1
41
1
41
1
41
1
41
1
41
1
41
1
41
1
41
1
41
1
41
1
41
1
41
1
41
1
41
1
41
1
41
1
41
1
41
1
41
1
41
1
41
1
41
1
10
-29.399251528238125
20
-40.340569454285571
30
0
10
-29.656507156487546
20
-40.151921514234033
30
0
10
-30.149277549677706
20
-39.745355748547652
30
0
10
-30.823210092586329
20
-39.047694603673278
30
0
10
-31.591004370465026
20
-37.941421071519258
30
0
10
-32.331448092232208
20
-36.268305648661055
30
0
10
-32.852162023639963
20
-34.319573104036238
30
0
10
-33.154837684303928
20
-32.127454688906496
30
0
10
-33.245151773347949
20
-29.751212091433459
30
0
10
-33.132846047409906
20
-27.276120497647433
30
0
10
-32.829319454956469
20
-24.798003971632955
30
0
10
-32.346014059027809
20
-22.411866816993317
30
0
10
-31.692410888083451
20
-20.198177062166735
30
0
10
-30.87463447394121
20
-18.211693873797998
30
0
10
-29.892918926648605
20
-16.464713261013721
30
0
10
-28.743335198941892
20
-14.929262261528912
30
0
10
-27.423066916184553
20
-13.555475765720889
30
0
10
-25.935076374825265
20
-12.285713704467208
30
0
10
-24.292458645714948
20
-11.068884796085614
30
0
10
-22.524801121406767
20
-9.8779371785250216
30
0
10
-20.676605923830316
20
-8.7119904803867581
30
0
10
-18.799656073040293
20
-7.5864440344543578
30
0
10
-16.947136965572543
20
-6.526641045408609
30
0
10
-15.167375934396308
20
-5.5604504961483343
30
0
10
-13.49702735851003
20
-4.7106989667846229
30
0
10
-11.956439283453379
20
-3.9895485279361855
30
0
10
-10.835338312856395
20
-3.5198341761868757
30
0
10
-10.058201586814954
20
-3.228307152911905
30
0
10
-9.5683466965262927
20
-3.060892974453298
30
0
10
-9.3304781015160518
20
-2.9839199716362161
30
0
0
ARC
5
118
100
AcDbEntity
8
0
100
AcDbCircle
10
0
20
0
30
0
40
9.7959991833401094
210
0
220
0
230
1
100
AcDbArc
50
197.73446054463071
51
214.76014314124117
0
SPLINE
5
119
100
AcDbEntity
8
0
100
AcDbSpline
70
4
71
5
72
26
73
20
74
0
42
0.000000001
43
0.0000000001
44
0.0000000001
40
0
40
0
40
0
40
0
40
0
40
0
40
0.066666666666666666
40
0.13333333333333333
40
0.20000000000000001
40
0.26666666666666666
40
0.33333333333333331
40
0.39999999999999997
40
0.46666666666666662
40
0.53333333333333333
40
0.59999999999999998
40
0.66666666666666663
40
0.73333333333333328
40
0.79999999999999993
40
0.86666666666666659
40
0.93333333333333324
40
1
40
1
40
1
40
1
40
1
40
1
41
1
41
1
41
1
41
1
41
1
41
1
41
1
41
1
41
1
41
1
41
1
41
1
41
1
41
1
41
1
41
1
41
1
41
1
41
1
41
1
10
-8.0478641199371506
20
-5.585112631543657
30
0
10
-8.3711052083009392
20
-6.3260388196847837
30
0
10
-9.0019920717049544
20
-7.7974864153902299
30
0
10
-9.9015363489603452
20
-9.9734440952981682
30
0
10
-11.006677399381982
20
-12.811834292532001
30
0
10
-12.224025796761641
20
-16.253010260239741
30
0
10
-13.263472812679208
20
-19.586092073572509
30
0
10
-14.10291935887297
20
-22.812573412390826
30
0
10
-14.711189386347314
20
-25.938650307244728
30
0
10
-15.046577584994981
20
-28.97865081243846
30
0
10
-15.060681773267078
20
-31.953121858005208
30
0
10
-14.705219494276381
20
-34.884715930791238
30
0
10
-13.938263111248787
20
-37.795255732131977
30
0
10
-12.733449779611568
20
-40.702132960116295
30
0
10
-11.085559374693757
20
-43.616064414962125
30
0
10
-9.0004027322673981
20
-46.543126755532391
30
0
10
-6.9911144112850918
20
-48.897411980623495
30
0
10
-5.2966903134361747
20
-50.670523361084044
30
0
10
-4.0843660663765302
20
-51.855860790437532
30
0
10
-3.4575265977912553
20
-52.449345347424547
30
0
0
SPLINE
5
120
100
AcDbEntity
8
0
100
AcDbSpline
70
4
71
5
72
41
73
35
74
0
42
0.000000001
43
0.0000000001
44
0.0000000001
40
0
40
0
40
0
40
0
40
0
40
0
40
0.033333333333333333
40
0.066666666666666666
40
0.10000000000000001
40
0.13333333333333333
40
0.16666666666666666
40
0.19999999999999998
40
0.23333333333333331
40
0.26666666666666666
40
0.29999999999999999
40
0.33333333333333331
40
0.36666666666666664
40
0.39999999999999997
40
0.43333333333333329
40
0.46666666666666662
40
0.49999999999999994
40
0.53333333333333333
40
0.56666666666666665
40
0.59999999999999998
40
0.6333333333333333
40
0.66666666666666663
40
0.69999999999999996
40
0.73333333333333328
40
0.76666666666666661
40
0.79999999999999993
40
0.83333333333333326
40
0.86666666666666659
40
0.89999999999999991
40
0.93333333333333324
40
0.96666666666666656
40
1
40
1
40
1
40
1
40
1
40
1
41
1
41
1
41
1
41
1
41
1
41
1
41
1
41
1
41
1
41
1
41
1
41
1
41
1
41
1
41
1
41
1
41
1
41
1
41
1
41
1
41
1
41
1
41
1
41
1
41
1
41
1
41
1
41
1
41
1
41
1
41
1
41
1
41
1
41
1
41
1
10
-3.4575265977912553
20
-52.449345347424547
30
0
10
-3.6946483512842967
20
-52.783810694438664
30
0
10
-4.1877468828615108
20
-53.458891060471707
30
0
10
-4.9839594877069313
20
-54.489959760957547
30
0
10
-6.1589130644909531
20
-55.901688705621595
30
0
10
-7.8172684604707223
20
-57.724483885955003
30
0
10
-9.6655558497074558
20
-59.594402900295826
30
0
10
-11.702643627622969
20
-61.488593364605286
30
0
10
-13.925368731433361
20
-63.369060950892695
30
0
10
-16.330276667290505
20
-65.188646429879896
30
0
10
-18.915258844647923
20
-66.89627225894418
30
0
10
-21.680924639274291
20
-68.442194355316332
30
0
10
-24.632707926125303
20
-69.783847825912957
30
0
10
-27.78054102909886
20
-70.889632535564417
30
0
10
-31.132632105159075
20
-71.737667053834457
30
0
10
-34.69052522950647
20
-72.315630990417858
30
0
10
-38.44324536928729
20
-72.620346644245217
30
0
10
-42.362449351888849
20
-72.657496064827612
30
0
10
-46.39505933693237
20
-72.441682729020386
30
0
10
-50.469323721286301
20
-71.994683237143661
30
0
10
-54.505165518284386
20
-71.343135349193318
30
0
10
-58.422822842851147
20
-70.516525334599166
30
0
10
-62.15261783611971
20
-69.545072619777898
30
0
10
-65.64332317093249
20
-68.457826545223369
30
0
10
-68.873721657916334
20
-67.280415421011909
30
0
10
-71.854306245504773
20
-66.033983106972954
30
0
10
-74.615287006513654
20
-64.735784283395972
30
0
10
-77.197881108651373
20
-63.399354614316067
30
0
10
-79.644960238765748
20
-62.034854771643204
30
0
10
-81.99077267541378
20
-60.649279032517143
30
0
10
-84.255292001278846
20
-59.246848600637854
30
0
10
-86.010296004368257
20
-58.113158424758581
30
0
10
-87.296343959516662
20
-57.256630514773789
30
0
10
-88.140314818988386
20
-56.682834767729702
30
0
10
-88.55895130404366
20
-56.395242598671864
30
0
0
SPLINE
5
121
100
AcDbEntity
8
0
100
AcDbSpline
70
4
71
5
72
26
73
20
74
0
42
0.000000001
43
0.0000000001
44
0.0000000001
40
0
40
0
40
0
40
0
40
0
40
0
40
0.066666666666666666
40
0.13333333333333333
40
0.20000000000000001
40
0.26666666666666666
40
0.33333333333333331
40
0.39999999999999997
40
0.46666666666666662
40
0.53333333333333333
40
0.59999999999999998
40
0.66666666666666663
40
0.73333333333333328
40
0.79999999999999993
40
0.86666666666666659
40
0.93333333333333324
40
1
40
1
40
1
40
1
40
1
40
1
41
1
41
1
41
1
41
1
41
1
41
1
41
1
41
1
41
1
41
1
41
1
41
1
41
1
41
1
41
1
41
1
41
1
41
1
41
1
41
1
10
-88.55895130404366
20
-56.395242598671864
30
0
10
-88.387792748157992
20
-56.683962364491684
30
0
10
-88.033113787015736
20
-57.269708072951985
30
0
10
-87.46400919751872
20
-58.173245814031873
30
0
10
-86.630496728429094
20
-59.428157936442119
30
0
10
-85.462338172900246
20
-61.080823585021321
30
0
10
-84.168477778414825
20
-62.814635650252306
30
0
10
-82.754528929976786
20
-64.620843485801231
30
0
10
-81.235175913074045
20
-66.481019576075255
30
0
10
-79.636022350785481
20
-68.365452214063268
30
0
10
-77.988378112438824
20
-70.238515058370297
30
0
10
-76.32582518043607
20
-72.062401868875241
30
0
10
-74.680196152624077
20
-73.801648511030251
30
0
10
-73.078285788535155
20
-75.426946628122749
30
0
10
-71.537055369762669
20
-76.921036421230866
30
0
10
-70.064641852060305
20
-78.277164429467675
30
0
10
-68.944012613431426
20
-79.250949825742566
30
0
10
-68.135680471510398
20
-79.919614291949529
30
0
10
-67.610975647312415
20
-80.338175086280728
30
0
10
-67.35216893429849
20
-80.540651746063929
30
0
0
SPLINE
5
122
100
AcDbEntity
8
0
100
AcDbSpline
70
4
71
5
72
31
73
25
74
0
42
0.000000001
43
0.0000000001
44
0.0000000001
40
0
40
0
40
0
40
0
40
0
40
0
40
0.050000000000000003
40
0.10000000000000001
40
0.15000000000000002
40
0.20000000000000001
40
0.25
40
0.29999999999999999
40
0.34999999999999998
40
0.39999999999999997
40
0.44999999999999996
40
0.49999999999999994
40
0.54999999999999993
40
0.59999999999999998
40
0.65000000000000002
40
0.70000000000000007
40
0.75000000000000011
40
0.80000000000000016
40
0.8500000000000002
40
0.90000000000000024
40
0.95000000000000029
40
1
40
1
40
1
40
1
40
1
40
1
41
1
41
1
41
1
41
1
41
1
41
1
41
1
41
1
41
1
41
1
41
1
41
1
41
1
41
1
41
1
41
1
41
1
41
1
41
1
41
1
41
1
41
1
41
1
41
1
41
1
10
-67.35216893429849
20
-80.540651746063929
30
0
10
-66.979478769089809
20
-80.59238749449429
30
0
10
-66.188861826595257
20
-80.689353519938749
30
0
10
-64.867236262843292
20
-80.815283484536906
30
0
10
-62.832476724384591
20
-80.944015902934296
30
0
10
-59.838186597303846
20
-81.035055650436206
30
0
10
-56.413474837788144
20
-81.044499565167328
30
0
10
-52.61151274589588
20
-80.949206948340859
30
0
10
-48.512919856390312
20
-80.716499801355695
30
0
10
-44.211271305515538
20
-80.308795612937374
30
0
10
-39.801660808505119
20
-79.687570735964158
30
0
10
-35.369314844171797
20
-78.81738297273526
30
0
10
-30.975746329202785
20
-77.67104688126274
30
0
10
-26.658776805574711
20
-76.229832424273653
30
0
10
-22.439131815763428
20
-74.481418970414367
30
0
10
-18.324603208514404
20
-72.418984153752831
30
0
10
-14.314822632660258
20
-70.040228454835415
30
0
10
-10.40562858541576
20
-67.346923347483724
30
0
10
-6.5930049952599088
20
-64.344473132765415
30
0
10
-2.873149864868167
20
-61.040047446758187
30
0
10
0.75714656597883745
20
-57.441129911784294
30
0
10
3.5916992844720834
20
-54.331625050578339
30
0
10
5.6791044405932833
20
-51.871958778550429
30
0
10
7.0536624622702826
20
-50.175728608040295
30
0
10
7.7366801006260957
20
-49.313500335478381
30
0
0
SPLINE
5
123
100
AcDbEntity
8
0
100
AcDbSpline
70
4
71
5
72
36
73
30
74
0
42
0.000000001
43
0.0000000001
44
0.0000000001
40
0
40
0
40
0
40
0
40
0
40
0
40
0.040000000000000001
40
0.080000000000000002
40
0.12
40
0.16
40
0.20000000000000001
40
0.24000000000000002
40
0.28000000000000003
40
0.32000000000000001
40
0.35999999999999999
40
0.39999999999999997
40
0.43999999999999995
40
0.47999999999999993
40
0.51999999999999991
40
0.55999999999999994
40
0.59999999999999998
40
0.64000000000000001
40
0.68000000000000005
40
0.72000000000000008
40
0.76000000000000012
40
0.80000000000000016
40
0.84000000000000019
40
0.88000000000000023
40
0.92000000000000026
40
0.9600000000000003
40
1
40
1
40
1
40
1
40
1
40
1
41
1
41
1
41
1
41
1
41
1
41
1
41
1
41
1
41
1
41
1
41
1
41
1
41
1
41
1
41
1
41
1
41
1
41
1
41
1
41
1
41
1
41
1
41
1
41
1
41
1
41
1
41
1
41
1
41
1
41
1
10
7.7366801006260957
20
-49.313500335478381
30
0
10
7.4213786637226047
20
-49.362013297040754
30
0
10
6.7854519672103457
20
-49.422969173711678
30
0
10
5.8155887695421207
20
-49.406190518347103
30
0
10
4.4904227126633769
20
-49.166849542356005
30
0
10
2.7837786747075621
20
-48.507351057899129
30
0
10
1.0376163257335742
20
-47.497589412841961
30
0
10
-0.7264694829187528
20
-46.161551628503837
30
0
10
-2.4705884421325823
20
-44.545156078891274
30
0
10
-4.1413303517786479
20
-42.715589888491998
30
0
10
-5.6789976401007758
20
-40.748671176580743
30
0
10
-7.0245028801448059
20
-38.719668890845085
30
0
10
-8.127650682848703
20
-36.692186619380159
30
0
10
-8.9540511681248507
20
-34.709275638234082
30
0
10
-9.4951752853400162
20
-32.779796079644335
30
0
10
-9.7680246498520766
20
-30.881189816325595
30
0
10
-9.8058677412164243
20
-28.976205413515022
30
0
10
-9.651556903084856
20
-27.026179847374365
30
0
10
-9.3504787405936778
20
-25.004245739564762
30
0
10
-8.942683254755039
20
-22.912195980897593
30
0
10
-8.4602607143483173
20
-20.780875806979946
30
0
10
-7.9289382713671772
20
-18.657790315079637
30
0
10
-7.3684033284751234
20
-16.598467611634117
30
0
10
-6.7931221237386428
20
-14.656786628295453
30
0
10
-6.2128723875200258
20
-12.874806754602165
30
0
10
-5.6334424781969927
20
-11.275516114147852
30
0
10
-5.172842582835635
20
-10.150639812101673
30
0
10
-4.8294646690000578
20
-9.3949804281530884
30
0
10
-4.6014646551350582
20
-8.9302210125790573
30
0
10
-4.4876942908326454
20
-8.7075943837565255
30
0
0
ARC
5
124
100
AcDbEntity
8
0
100
AcDbCircle
10
0
20
0
30
0
40
9.7959991833401112
210
0
220
0
230
1
100
AcDbArc
50
242.73446054463068
51
259.7601431412412
0
SPLINE
5
125
100
AcDbEntity
8
0
100
AcDbSpline
70
4
71
5
72
26
73
20
74
0
42
0.000000001
43
0.0000000001
44
0.0000000001
40
0
40
0
40
0
40
0
40
0
40
0
40
0.066666666666666666
40
0.13333333333333333
40
0.20000000000000001
40
0.26666666666666666
40
0.33333333333333331
40
0.39999999999999997
40
0.46666666666666662
40
0.53333333333333333
40
0.59999999999999998
40
0.66666666666666663
40
0.73333333333333328
40
0.79999999999999993
40
0.86666666666666659
40
0.93333333333333324
40
1
40
1
40
1
40
1
40
1
40
1
41
1
41
1
41
1
41
1
41
1
41
1
41
1
41
1
41
1
41
1
41
1
41
1
41
1
41
1
41
1
41
1
41
1
41
1
41
1
41
1
10
-1.7414282778202992
20
-9.6399703087306285
30
0
10
-1.4460803113679566
20
-10.392450206261399
30
0
10
-0.85171411755981319
20
-11.879025158615208
30
0
10
0.050846455051989987
20
-14.053733448073107
30
0
10
1.2764386802484686
20
-16.842231135108896
30
0
10
2.8489222354181858
20
-20.136305303986969
30
0
10
4.4707669542373853
20
-23.228150090088604
30
0
10
6.1586554430314342
20
-26.103195269402143
30
0
10
7.9390137526737439
20
-28.743777301488809
30
0
10
9.8514634551126186
20
-31.13053754311867
30
0
10
11.944758934705032
20
-33.24377935705251
30
0
10
14.269058771188591
20
-35.06537961767259
30
0
10
16.86944126094399
20
-36.581121988795559
30
0
10
19.776845537794841
20
-37.784662911908946
30
0
10
23.002540709400726
20
-38.679889123568152
30
0
10
26.546714741070822
20
-39.275206351843181
30
0
10
29.63222718570503
20
-39.519156002229472
30
0
10
32.084145036420907
20
-39.574796313362299
30
0
10
33.779547866801977
20
-39.555713751564348
30
0
10
34.642447260527952
20
-39.532128267390043
30
0
0
SPLINE
5
126
100
AcDbEntity
8
0
100
AcDbSpline
70
4
71
5
72
41
73
35
74
0
42
0.000000001
43
0.0000000001
44
0.0000000001
40
0
40
0
40
0
40
0
40
0
40
0
40
0.033333333333333333
40
0.066666666666666666
40
0.10000000000000001
40
0.13333333333333333
40
0.16666666666666666
40
0.19999999999999998
40
0.23333333333333331
40
0.26666666666666666
40
0.29999999999999999
40
0.33333333333333331
40
0.36666666666666664
40
0.39999999999999997
40
0.43333333333333329
40
0.46666666666666662
40
0.49999999999999994
40
0.53333333333333333
40
0.56666666666666665
40
0.59999999999999998
40
0.6333333333333333
40
0.66666666666666663
40
0.69999999999999996
40
0.73333333333333328
40
0.76666666666666661
40
0.79999999999999993
40
0.83333333333333326
40
0.86666666666666659
40
0.89999999999999991
40
0.93333333333333324
40
0.96666666666666656
40
1
40
1
40
1
40
1
40
1
40
1
41
1
41
1
41
1
41
1
41
1
41
1
41
1
41
1
41
1
41
1
41
1
41
1
41
1
41
1
41
1
41
1
41
1
41
1
41
1
41
1
41
1
41
1
41
1
41
1
41
1
41
1
41
1
41
1
41
1
41
1
41
1
41
1
41
1
41
1
41
1
10
34.642447260527952
20
-39.532128267390043
30
0
10
34.711279575614157
20
-39.936301382192447
30
0
10
34.83996016481457
20
-40.762328602323556
30
0
10
35.006028502648185
20
-42.054411604452156
30
0
10
35.173453970893874
20
-43.883472356145234
30
0
10
35.289730457502429
20
-46.345017534997268
30
0
10
35.305026326296037
20
-48.974186496829759
30
0
10
35.203982666828239
20
-51.754020000646321
30
0
10
34.961970055274783
20
-54.655415376331966
30
0
10
34.54808457684257
20
-57.642583317043446
30
0
10
33.927699953449874
20
-60.677915547354146
30
0
10
33.065210913107343
20
-63.72666858275516
30
0
10
31.926677201444988
20
-66.762586828538005
30
0
10
30.482730935016594
20
-69.770348828419699
30
0
10
28.712095562528166
20
-72.740286118006708
30
0
10
26.604967426403494
20
-75.664778691811733
30
0
10
24.166860072822619
20
-78.533819055704242
30
0
10
21.421832967080952
20
-81.331383375869052
30
0
10
18.417744027554512
20
-84.030266168956146
30
0
10
15.220727681136598
20
-86.595129771587779
30
0
10
11.906242648845042
20
-88.988186944203619
30
0
10
8.5515390415631956
20
-91.173887458052349
30
0
10
5.2272549071373557
20
-93.124329987973681
30
0
10
1.9901544216349374
20
-94.823832329205047
30
0
10
-1.1266376446162845
20
-96.275513615109048
30
0
10
-4.1155899599440948
20
-97.501744447344279
30
0
10
-6.9858633702585831
20
-98.536087474699698
30
0
10
-9.7570316545214872
20
-99.417258795790644
30
0
10
-12.452224993214799
20
-100.18275795111718
30
0
10
-15.090714875552715
20
-100.86174783148428
30
0
10
-17.683639915530019
20
-101.47133673441046
30
0
10
-19.726255158251696
20
-101.91067195487483
30
0
10
-21.241285081688218
20
-102.21438849146222
30
0
10
-22.243797463289198
20
-102.40543114556414
30
0
10
-22.743176533677186
20
-102.49809347003983
30
0
0
SPLINE
5
127
100
AcDbEntity
8
0
100
AcDbSpline
70
4
71
5
72
26
73
20
74
0
42
0.000000001
43
0.0000000001
44
0.0000000001
40
0
40
0
40
0
40
0
40
0
40
0
40
0.066666666666666666
40
0.13333333333333333
40
0.20000000000000001
40
0.26666666666666666
40
0.33333333333333331
40
0.39999999999999997
40
0.46666666666666662
40
0.53333333333333333
40
0.59999999999999998
40
0.66666666666666663
40
0.73333333333333328
40
0.79999999999999993
40
0.86666666666666659
40
0.93333333333333324
40
1
40
1
40
1
40
1
40
1
40
1
41
1
41
1
41
1
41
1
41
1
41
1
41
1
41
1
41
1
41
1
41
1
41
1
41
1
41
1
41
1
41
1
41
1
41
1
41
1
41
1
10
-22.743176533677186
20
-102.49809347003983
30
0
10
-22.417993453880833
20
-102.58122179879821
30
0
10
-21.753012792813745
20
-102.74461066274966
30
0
10
-20.711697414604593
20
-102.9810906121031
30
0
10
-19.234958223960156
20
-103.27906516456073
30
0
10
-17.240334300697871
20
-103.6216634155777
30
0
10
-15.099446573215223
20
-103.93275622533558
30
0
10
-12.822451945478461
20
-104.21012521508315
30
0
10
-10.432763996571119
20
-104.45112352143612
30
0
10
-7.9694965715046777
20
-104.65284629039007
30
0
10
-5.4799807187887408
20
-104.81224131527406
30
0
10
-3.0146955346662132
20
-104.92632159480632
30
0
10
-0.62122699496435574
20
-104.99251924475587
30
0
10
1.6607540063756079
20
-105.00905688350784
30
0
10
3.8070495112636182
20
-104.97572342743396
30
0
10
5.8071304051204331
20
-104.89349715513647
30
0
10
7.2881051960789964
20
-104.78966287843019
30
0
10
8.3324995134798545
20
-104.69090291781808
30
0
10
8.9994890288058453
20
-104.61584775451522
30
0
10
9.3256656297615628
20
-104.57601639189033
30
0
0
SPLINE
5
128
100
AcDbEntity
8
0
100
AcDbSpline
70
4
71
5
72
31
73
25
74
0
42
0.000000001
43
0.0000000001
44
0.0000000001
40
0
40
0
40
0
40
0
40
0
40
0
40
0.050000000000000003
40
0.10000000000000001
40
0.15000000000000002
40
0.20000000000000001
40
0.25
40
0.29999999999999999
40
0.34999999999999998
40
0.39999999999999997
40
0.44999999999999996
40
0.49999999999999994
40
0.54999999999999993
40
0.59999999999999998
40
0.65000000000000002
40
0.70000000000000007
40
0.75000000000000011
40
0.80000000000000016
40
0.8500000000000002
40
0.90000000000000024
40
0.95000000000000029
40
1
40
1
40
1
40
1
40
1
40
1
41
1
41
1
41
1
41
1
41
1
41
1
41
1
41
1
41
1
41
1
41
1
41
1
41
1
41
1
41
1
41
1
41
1
41
1
41
1
41
1
41
1
41
1
41
1
41
1
41
1
10
9.3256656297615628
20
-104.57601639189033
30
0
10
9.6257800714078208
20
-104.34906734733454
30
0
10
10.253396006904465
20
-103.85858208011206
30
0
10
11.276972337146002
20
-103.01309761371535
30
0
10
12.806792170881355
20
-101.66533291199444
30
0
10
14.988449847394197
20
-99.612424881111991
30
0
10
17.41676461230151
20
-97.197465828497002
30
0
10
20.037775733735241
20
-94.44169059595167
30
0
10
22.771369757562656
20
-91.378998968796239
30
0
10
25.524804221819615
20
-88.048983711842595
30
0
10
28.203597383500494
20
-84.49164590386458
30
0
10
30.722423603165158
20
-80.742188347632847
30
0
10
33.018563669912908
20
-76.824884233288671
30
0
10
35.052029578568032
20
-72.753233293272132
30
0
10
36.799454155521978
20
-68.53317869723432
30
0
10
38.250503590473684
20
-64.165405973048038
30
0
10
39.40381234123204
20
-59.648028651305978
30
0
10
40.263575655789467
20
-54.979356726320134
30
0
10
40.836454743487103
20
-50.160371824614884
30
0
10
41.13020772070783
20
-45.193455226386703
30
0
10
41.152395950764287
20
-40.081629008507697
30
0
10
40.957975426156935
20
-35.878545586134479
30
0
10
40.694747066737577
20
-32.663280544743031
30
0
10
40.467290508988157
20
-30.491905390452864
30
0
10
40.340569454285593
20
-29.399251528238118
30
0
0
SPLINE
5
129
100
AcDbEntity
8
0
100
AcDbSpline
70
4
71
5
72
36
73
30
74
0
42
0.000000001
43
0.0000000001
44
0.0000000001
40
0
40
0
40
0
40
0
40
0
40
0
40
0.040000000000000001
40
0.080000000000000002
40
0.12
40
0.16
40
0.20000000000000001
40
0.24000000000000002
40
0.28000000000000003
40
0.32000000000000001
40
0.35999999999999999
40
0.39999999999999997
40
0.43999999999999995
40
0.47999999999999993
40
0.51999999999999991
40
0.55999999999999994
40
0.59999999999999998
40
0.64000000000000001
40
0.68000000000000005
40
0.72000000000000008
40
0.76000000000000012
40
0.80000000000000016
40
0.84000000000000019
40
0.88000000000000023
40
0.92000000000000026
40
0.9600000000000003
40
1
40
1
40
1
40
1
40
1
40
1
41
1
41
1
41
1
41
1
41
1
41
1
41
1
41
1
41
1
41
1
41
1
41
1
41
1
41
1
41
1
41
1
41
1
41
1
41
1
41
1
41
1
41
1
41
1
41
1
41
1
41
1
41
1
41
1
41
1
41
1
10
40.340569454285593
20
-29.399251528238118
30
0
10
40.151921514233628
20
-29.656507156481851
30
0
10
39.745355748546572
20
-30.14927754966233
30
0
10
39.047694603671658
20
-30.823210092561592
30
0
10
37.941421071517695
20
-31.591004370437457
30
0
10
36.268305648660245
20
-32.331448092212447
30
0
10
34.319573104036252
20
-32.852162023633305
30
0
10
32.127454688906639
20
-33.154837684309626
30
0
10
29.751212091433217
20
-33.24515177336152
30
0
10
27.276120497646716
20
-33.132846047425851
30
0
10
24.798003971631903
20
-32.829319454970047
30
0
10
22.411866816992312
20
-32.346014059036051
30
0
10
20.198177062166245
20
-31.692410888085579
30
0
10
18.211693873798474
20
-30.874634473938386
30
0
10
16.464713261015305
20
-29.892918926643116
30
0
10
14.929262261531235
20
-28.743335198936126
30
0
10
13.555475765723113
20
-27.423066916180453
30
0
10
12.285713704468254
20
-25.935076374823957
30
0
10
11.068884796084497
20
-24.292458645716671
30
0
10
9.877937178521357
20
-22.524801121410853
30
0
10
8.7119904803811874
20
-20.676605923835481
30
0
10
7.5864440344485393
20
-18.799656073044908
30
0
10
6.5266410454048964
20
-16.947136965575083
30
0
10
5.5604504961490306
20
-15.167375934395688
30
0
10
4.7106989667908108
20
-13.497027358506173
30
0
10
3.9895485279462539
20
-11.956439283447516
30
0
10
3.5198341761964276
20
-10.835338312851018
30
0
10
3.2283071529179628
20
-10.058201586811595
30
0
10
3.0608929744555624
20
-9.5683466965250474
30
0
10
2.9839199716362179
20
-9.3304781015160501
30
0
0
ARC
5
130
100
AcDbEntity
8
0
100
AcDbCircle
10
0
20
0
30
0
40
9.7959991833401077
210
0
220
0
230
1
100
AcDbArc
50
287.73446054463074
51
304.7601431412412
0
SPLINE
5
131
100
AcDbEntity
8
0
100
AcDbSpline
70
4
71
5
72
26
73
20
74
0
42
0.000000001
43
0.0000000001
44
0.0000000001
40
0
40
0
40
0
40
0
40
0
40
0
40
0.066666666666666666
40
0.13333333333333333
40
0.20000000000000001
40
0.26666666666666666
40
0.33333333333333331
40
0.39999999999999997
40
0.46666666666666662
40
0.53333333333333333
40
0.59999999999999998
40
0.66666666666666663
40
0.73333333333333328
40
0.79999999999999993
40
0.86666666666666659
40
0.93333333333333324
40
1
40
1
40
1
40
1
40
1
40
1
41
1
41
1
41
1
41
1
41
1
41
1
41
1
41
1
41
1
41
1
41
1
41
1
41
1
41
1
41
1
41
1
41
1
41
1
41
1
41
1
10
5.5851126315436561
20
-8.0478641199371506
30
0
10
6.3260388196848396
20
-8.3711052083011861
30
0
10
7.7974864153903898
20
-9.0019920717056188
30
0
10
9.9734440952984542
20
-9.9015363489613879
30
0
10
12.811834292532406
20
-11.006677399383104
30
0
10
16.25301026024017
20
-12.224025796762454
30
0
10
19.586092073572836
20
-13.263472812679593
30
0
10
22.812573412390883
20
-14.102919358872985
30
0
10
25.938650307244558
20
-14.711189386347209
30
0
10
28.978650812438175
20
-15.046577584994967
30
0
10
31.953121858004984
20
-15.060681773267238
30
0
10
34.884715930791131
20
-14.705219494276587
30
0
10
37.79525573213202
20
-13.938263111248785
30
0
10
40.702132960116344
20
-12.733449779611082
30
0
10
43.616064414962132
20
-11.085559374692709
30
0
10
46.543126755532363
20
-9.0004027322660178
30
0
10
48.897411980623474
20
-6.9911144112838723
30
0
10
50.670523361084044
20
-5.2966903134354233
30
0
10
51.855860790437532
20
-4.0843660663762593
30
0
10
52.449345347424547
20
-3.457526597791265
30
0
0
SPLINE
5
132
100
AcDbEntity
8
0
100
AcDbSpline
70
4
71
5
72
41
73
35
74
0
42
0.000000001
43
0.0000000001
44
0.0000000001
40
0
40
0
40
0
40
0
40
0
40
0
40
0.033333333333333333
40
0.066666666666666666
40
0.10000000000000001
40
0.13333333333333333
40
0.16666666666666666
40
0.19999999999999998
40
0.23333333333333331
40
0.26666666666666666
40
0.29999999999999999
40
0.33333333333333331
40
0.36666666666666664
40
0.39999999999999997
40
0.43333333333333329
40
0.46666666666666662
40
0.49999999999999994
40
0.53333333333333333
40
0.56666666666666665
40
0.59999999999999998
40
0.6333333333333333
40
0.66666666666666663
40
0.69999999999999996
40
0.73333333333333328
40
0.76666666666666661
40
0.79999999999999993
40
0.83333333333333326
40
0.86666666666666659
40
0.89999999999999991
40
0.93333333333333324
40
0.96666666666666656
40
1
40
1
40
1
40
1
40
1
40
1
41
1
41
1
41
1
41
1
41
1
41
1
41
1
41
1
41
1
41
1
41
1
41
1
41
1
41
1
41
1
41
1
41
1
41
1
41
1
41
1
41
1
41
1
41
1
41
1
41
1
41
1
41
1
41
1
41
1
41
1
41
1
41
1
41
1
41
1
41
1
10
52.449345347424547
20
-3.457526597791265
30
0
10
52.783810694437811
20
-3.6946483512843113
30
0
10
53.458891060469426
20
-4.1877468828615356
30
0
10
54.489959760954065
20
-4.9839594877069722
30
0
10
55.901688705618142
20
-6.1589130644909682
30
0
10
57.724483885953262
20
-7.8172684604707934
30
0
10
59.594402900296146
20
-9.6655558497074612
30
0
10
61.488593364607098
20
-11.702643627622919
30
0
10
63.369060950894877
20
-13.925368731433171
30
0
10
65.188646429881501
20
-16.330276667290207
30
0
10
66.89627225894472
20
-18.915258844647667
30
0
10
68.44219435531592
20
-21.680924639274352
30
0
10
69.783847825912417
20
-24.632707926125974
30
0
10
70.889632535564459
20
-27.780541029100149
30
0
10
71.73766705383521
20
-31.132632105160599
30
0
10
72.315630990418924
20
-34.690525229507642
30
0
10
72.620346644245657
20
-38.443245369287567
30
0
10
72.657496064826731
20
-42.36244935188811
30
0
10
72.441682729017572
20
-46.395059336930842
30
0
10
71.994683237139256
20
-50.469323721284539
30
0
10
71.343135349188259
20
-54.505165518282936
30
0
10
70.51652533459486
20
-58.422822842850273
30
0
10
69.545072619775738
20
-62.152617836119497
30
0
10
68.457826545224691
20
-65.643323170932703
30
0
10
67.280415421017068
20
-68.873721657916619
30
0
10
66.033983106980713
20
-71.854306245504873
30
0
10
64.735784283403731
20
-74.615287006513526
30
0
10
63.399354614320487
20
-77.197881108651131
30
0
10
62.034854771641371
20
-79.644960238765847
30
0
10
60.649279032507941
20
-81.990772675414462
30
0
10
59.246848600623565
20
-84.255292001279855
30
0
10
58.113158424745151
20
-86.010296004369181
30
0
10
57.256630514765277
20
-87.296343959517259
30
0
10
56.682834767726519
20
-88.1403148189886
30
0
10
56.395242598671835
20
-88.55895130404366
30
0
0
SPLINE
5
133
100
AcDbEntity
8
0
100
AcDbSpline
70
4
71
5
72
26
73
20
74
0
42
0.000000001
43
0.0000000001
44
0.0000000001
40
0
40
0
40
0
40
0
40
0
40
0
40
0.066666666666666666
40
0.13333333333333333
40
0.20000000000000001
40
0.26666666666666666
40
0.33333333333333331
40
0.39999999999999997
40
0.46666666666666662
40
0.53333333333333333
40
0.59999999999999998
40
0.66666666666666663
40
0.73333333333333328
40
0.79999999999999993
40
0.86666666666666659
40
0.93333333333333324
40
1
40
1
40
1
40
1
40
1
40
1
41
1
41
1
41
1
41
1
41
1
41
1
41
1
41
1
41
1
41
1
41
1
41
1
41
1
41
1
41
1
41
1
41
1
41
1
41
1
41
1
10
56.395242598671835
20
-88.55895130404366
30
0
10
56.683962364483449
20
-88.387792748158176
30
0
10
57.269708072929753
20
-88.033113787016248
30
0
10
58.173245813996026
20
-87.464009197519616
30
0
10
59.428157936401782
20
-86.630496728430231
30
0
10
61.080823584991379
20
-85.462338172901312
30
0
10
62.814635650240319
20
-84.16847777841528
30
0
10
64.620843485806731
20
-82.754528929976573
30
0
10
66.481019576092237
20
-81.235175913073391
30
0
10
68.3654522140842
20
-79.636022350784671
30
0
10
70.238515058388316
20
-77.988378112438113
30
0
10
72.062401868885871
20
-76.325825180435658
30
0
10
73.801648511032298
20
-74.680196152624035
30
0
10
75.426946628117662
20
-73.078285788535297
30
0
10
76.921036421221928
20
-71.537055369762996
30
0
10
78.277164429458324
20
-70.064641852060618
30
0
10
79.250949825735546
20
-68.944012613431653
30
0
10
79.919614291945493
20
-68.135680471510526
30
0
10
80.33817508627925
20
-67.610975647312458
30
0
10
80.540651746063901
20
-67.35216893429849
30
0
0
SPLINE
5
134
100
AcDbEntity
8
0
100
AcDbSpline
70
4
71
5
72
31
73
25
74
0
42
0.000000001
43
0.0000000001
44
0.0000000001
40
0
40
0
40
0
40
0
40
0
40
0
40
0.050000000000000003
40
0.10000000000000001
40
0.15000000000000002
40
0.20000000000000001
40
0.25
40
0.29999999999999999
40
0.34999999999999998
40
0.39999999999999997
40
0.44999999999999996
40
0.49999999999999994
40
0.54999999999999993
40
0.59999999999999998
40
0.65000000000000002
40
0.70000000000000007
40
0.75000000000000011
40
0.80000000000000016
40
0.8500000000000002
40
0.90000000000000024
40
0.95000000000000029
40
1
40
1
40
1
40
1
40
1
40
1
41
1
41
1
41
1
41
1
41
1
41
1
41
1
41
1
41
1
41
1
41
1
41
1
41
1
41
1
41
1
41
1
41
1
41
1
41
1
41
1
41
1
41
1
41
1
41
1
41
1
10
80.540651746063901
20
-67.35216893429849
30
0
10
80.592387494498269
20
-66.979478769089852
30
0
10
80.689353519949179
20
-66.188861826595357
30
0
10
80.815283484552239
20
-64.867236262843392
30
0
10
80.944015902947569
20
-62.832476724384463
30
0
10
81.035055650439531
20
-59.838186597303689
30
0
10
81.044499565160152
20
-56.413474837788328
30
0
10
80.949206948327102
20
-52.611512745896441
30
0
10
80.716499801340987
20
-48.512919856391086
30
0
10
80.308795612927042
20
-44.211271305516263
30
0
10
79.687570735961486
20
-39.80166080850546
30
0
10
78.817382972740745
20
-35.369314844171335
30
0
10
77.671046881274179
20
-30.975746329201264
30
0
10
76.229832424287324
20
-26.658776805572153
30
0
10
74.481418970426262
20
-22.439131815760419
30
0
10
72.418984153759581
20
-18.324603208512176
30
0
10
70.040228454834704
20
-14.314822632660306
30
0
10
67.346923347474672
20
-10.405628585419368
30
0
10
64.344473132749016
20
-6.5930049952674716
30
0
10
61.040047446737304
20
-2.8731498648787532
30
0
10
57.441129911763582
20
0.75714656596757746
30
0
10
54.331625050562565
20
3.5916992844631697
30
0
10
51.871958778541384
20
5.6791044405880875
30
0
10
50.175728608037062
20
7.053662462268397
30
0
10
49.313500335478381
20
7.7366801006260868
30
0
0
SPLINE
5
135
100
AcDbEntity
8
0
100
AcDbSpline
70
4
71
5
72
36
73
30
74
0
42
0.000000001
43
0.0000000001
44
0.0000000001
40
0
40
0
40
0
40
0
40
0
40
0
40
0.040000000000000001
40
0.080000000000000002
40
0.12
40
0.16
40
0.20000000000000001
40
0.24000000000000002
40
0.28000000000000003
40
0.32000000000000001
40
0.35999999999999999
40
0.39999999999999997
40
0.43999999999999995
40
0.47999999999999993
40
0.51999999999999991
40
0.55999999999999994
40
0.59999999999999998
40
0.64000000000000001
40
0.68000000000000005
40
0.72000000000000008
40
0.76000000000000012
40
0.80000000000000016
40
0.84000000000000019
40
0.88000000000000023
40
0.92000000000000026
40
0.9600000000000003
40
1
40
1
40
1
40
1
40
1
40
1
41
1
41
1
41
1
41
1
41
1
41
1
41
1
41
1
41
1
41
1
41
1
41
1
41
1
41
1
41
1
41
1
41
1
41
1
41
1
41
1
41
1
41
1
41
1
41
1
41
1
41
1
41
1
41
1
41
1
41
1
10
49.313500335478381
20
7.7366801006260868
30
0
10
49.362013297041386
20
7.4213786637229937
30
0
10
49.42296917371344
20
6.7854519672114124
30
0
10
49.406190518350073
20
5.815588769543826
30
0
10
49.166849542359579
20
4.4904227126652705
30
0
10
48.507351057901936
20
2.7837786747089193
30
0
10
47.497589412843041
20
1.0376163257340361
30
0
10
46.161551628502949
20
-0.72646948291916158
30
0
10
44.545156078888979
20
-2.4705884421335735
30
0
10
42.715589888489198
20
-4.1413303517798603
30
0
10
40.748671176578348
20
-5.6789976401018798
30
0
10
38.71966889084365
20
-7.0245028801455369
30
0
10
36.692186619379832
20
-8.1276506828489321
30
0
10
34.70927563823453
20
-8.9540511681245825
30
0
10
32.779796079645223
20
-9.4951752853393714
30
0
10
30.881189816326579
20
-9.7680246498512915
30
0
10
28.976205413515778
20
-9.8058677412157795
30
0
10
27.026179847374653
20
-9.6515569030845896
30
0
10
25.004245739564418
20
-9.3504787405939922
30
0
10
22.91219598089662
20
-8.9426832547559556
30
0
10
20.78087580697861
20
-8.460260714349646
30
0
10
18.657790315078326
20
-7.928938271368521
30
0
10
16.598467611633325
20
-7.36840332847596
30
0
10
14.656786628295604
20
-6.793122123738482
30
0
10
12.874806754603439
20
-6.2128723875186456
30
0
10
11.275516114149868
20
-5.6334424781947696
30
0
10
10.150639812103545
20
-5.1728425828335292
30
0
10
9.3949804281542431
20
-4.8294646689987202
30
0
10
8.9302210125794819
20
-4.6014646551345599
30
0
10
8.7075943837565219
20
-4.4876942908326454
30
0
0
ARC
5
136
100
AcDbEntity
8
0
100
AcDbCircle
10
0
20
0
30
0
40
9.7959991833401077
210
0
220
0
230
1
100
AcDbArc
50
332.73446054463074
51
349.76014314124114
0
SPLINE
5
137
100
AcDbEntity
8
0
100
AcDbSpline
70
4
71
5
72
26
73
20
74
0
42
0.000000001
43
0.0000000001
44
0.0000000001
40
0
40
0
40
0
40
0
40
0
40
0
40
0.066666666666666666
40
0.13333333333333333
40
0.20000000000000001
40
0.26666666666666666
40
0.33333333333333331
40
0.39999999999999997
40
0.46666666666666662
40
0.53333333333333333
40
0.59999999999999998
40
0.66666666666666663
40
0.73333333333333328
40
0.79999999999999993
40
0.86666666666666659
40
0.93333333333333324
40
1
40
1
40
1
40
1
40
1
40
1
41
1
41
1
41
1
41
1
41
1
41
1
41
1
41
1
41
1
41
1
41
1
41
1
41
1
41
1
41
1
41
1
41
1
41
1
41
1
41
1
10
9.6399703087306285
20
-1.7414282778203001
30
0
10
10.392450206261239
20
-1.4460803113681142
30
0
10
11.879025158614766
20
-0.85171411756024662
30
0
10
14.053733448072352
20
0.050846455051255804
30
0
10
16.842231135107941
20
1.2764386802475656
30
0
10
20.136305303986092
20
2.8489222354173998
30
0
10
23.228150090088135
20
4.4707669542369421
30
0
10
26.103195269402093
20
6.1586554430313791
30
0
10
28.743777301489025
20
7.939013752673941
30
0
10
31.130537543118876
20
9.8514634551128726
30
0
10
33.243779357052631
20
11.944758934705229
30
0
10
35.065379617672612
20
14.269058771188687
30
0
10
36.581121988795559
20
16.869441260943958
30
0
10
37.784662911908939
20
19.776845537794706
30
0
10
38.679889123568152
20
23.002540709400513
30
0
10
39.275206351843195
20
26.546714741070584
30
0
10
39.519156002229501
20
29.632227185704846
30
0
10
39.574796313362327
20
32.084145036420807
30
0
10
39.555713751564355
20
33.779547866801941
30
0
10
39.532128267390043
20
34.642447260527952
30
0
0
SPLINE
5
138
100
AcDbEntity
8
0
100
AcDbSpline
70
4
71
5
72
41
73
35
74
0
42
0.000000001
43
0.0000000001
44
0.0000000001
40
0
40
0
40
0
40
0
40
0
40
0
40
0.033333333333333333
40
0.066666666666666666
40
0.10000000000000001
40
0.13333333333333333
40
0.16666666666666666
40
0.19999999999999998
40
0.23333333333333331
40
0.26666666666666666
40
0.29999999999999999
40
0.33333333333333331
40
0.36666666666666664
40
0.39999999999999997
40
0.43333333333333329
40
0.46666666666666662
40
0.49999999999999994
40
0.53333333333333333
40
0.56666666666666665
40
0.59999999999999998
40
0.6333333333333333
40
0.66666666666666663
40
0.69999999999999996
40
0.73333333333333328
40
0.76666666666666661
40
0.79999999999999993
40
0.83333333333333326
40
0.86666666666666659
40
0.89999999999999991
40
0.93333333333333324
40
0.96666666666666656
40
1
40
1
40
1
40
1
40
1
40
1
41
1
41
1
41
1
41
1
41
1
41
1
41
1
41
1
41
1
41
1
41
1
41
1
41
1
41
1
41
1
41
1
41
1
41
1
41
1
41
1
41
1
41
1
41
1
41
1
41
1
41
1
41
1
41
1
41
1
41
1
41
1
41
1
41
1
41
1
41
1
10
39.532128267390043
20
34.642447260527952
30
0
10
39.936301382192859
20
34.711279575614299
30
0
10
40.762328602324651
20
34.83996016481494
30
0
10
42.054411604453918
20
35.006028502648796
30
0
10
43.883472356147273
20
35.173453970894563
30
0
10
46.34501753499854
20
35.289730457502834
30
0
10
48.974186496829603
20
35.30502632629598
30
0
10
51.754020000644843
20
35.203982666827699
30
0
10
54.655415376330019
20
34.961970055273959
30
0
10
57.642583317042096
20
34.548084576841852
30
0
10
60.677915547353727
20
33.927699953449519
30
0
10
63.726668582755437
20
33.065210913107521
30
0
10
66.76258682853863
20
31.926677201445642
30
0
10
69.77034882842014
20
30.482730935017589
30
0
10
72.740286118006892
20
28.712095562529292
30
0
10
75.664778691811577
20
26.604967426404308
30
0
10
78.533819055704129
20
24.166860072822814
30
0
10
81.331383375869152
20
21.421832967080388
30
0
10
84.030266168956459
20
18.41774402755329
30
0
10
86.595129771587992
20
15.220727681135035
30
0
10
88.988186944203719
20
11.906242648843579
30
0
10
91.173887458052405
20
8.5515390415621901
30
0
10
93.124329987973638
20
5.2272549071370111
30
0
10
94.823832329205132
20
1.9901544216352274
30
0
10
96.275513615109233
20
-1.1266376446156166
30
0
10
97.50174444734462
20
-4.1155899599433692
30
0
10
98.536087474699997
20
-6.9858633702580528
30
0
10
99.417258795790829
20
-9.7570316545212901
30
0
10
100.18275795111705
20
-12.452224993214902
30
0
10
100.86174783148367
20
-15.090714875553022
30
0
10
101.47133673440953
20
-17.683639915530378
30
0
10
101.91067195487395
20
-19.72625515825197
30
0
10
102.21438849146169
20
-21.241285081688382
30
0
10
102.40543114556395
20
-22.243797463289251
30
0
10
102.49809347003983
20
-22.74317653367719
30
0
0
SPLINE
5
139
100
AcDbEntity
8
0
100
AcDbSpline
70
4
71
5
72
26
73
20
74
0
42
0.000000001
43
0.0000000001
44
0.0000000001
40
0
40
0
40
0
40
0
40
0
40
0
40
0.066666666666666666
40
0.13333333333333333
40
0.20000000000000001
40
0.26666666666666666
40
0.33333333333333331
40
0.39999999999999997
40
0.46666666666666662
40
0.53333333333333333
40
0.59999999999999998
40
0.66666666666666663
40
0.73333333333333328
40
0.79999999999999993
40
0.86666666666666659
40
0.93333333333333324
40
1
40
1
40
1
40
1
40
1
40
1
41
1
41
1
41
1
41
1
41
1
41
1
41
1
41
1
41
1
41
1
41
1
41
1
41
1
41
1
41
1
41
1
41
1
41
1
41
1
41
1
10
102.49809347003983
20
-22.74317653367719
30
0
10
102.58122179879811
20
-22.41799345388096
30
0
10
102.74461066274932
20
-21.753012792814047
30
0
10
102.98109061210252
20
-20.711697414604949
30
0
10
103.27906516455988
20
-19.234958223960341
30
0
10
103.6216634155768
20
-17.240334300697757
30
0
10
103.93275622533505
20
-15.099446573215015
30
0
10
104.21012521508337
20
-12.822451945478493
30
0
10
104.45112352143704
20
-10.432763996571669
30
0
10
104.65284629039144
20
-7.9694965715057995
30
0
10
104.81224131527551
20
-5.4799807187901814
30
0
10
104.92632159480755
20
-3.0146955346674851
30
0
10
104.99251924475622
20
-0.62122699496484324
30
0
10
105.0090568835071
20
1.6607540063764099
30
0
10
104.97572342743226
20
3.8070495112657898
30
0
10
104.89349715513433
20
5.8071304051234147
30
0
10
104.78966287842836
20
7.2881051960816521
30
0
10
104.69090291781694
20
8.3324995134814923
30
0
10
104.61584775451479
20
8.9994890288064404
30
0
10
104.57601639189033
20
9.3256656297615521
30
0
0
SPLINE
5
140
100
AcDbEntity
8
0
100
AcDbSpline
70
4
71
5
72
31
73
25
74
0
42
0.000000001
43
0.0000000001
44
0.0000000001
40
0
40
0
40
0
40
0
40
0
40
0
40
0.050000000000000003
40
0.10000000000000001
40
0.15000000000000002
40
0.20000000000000001
40
0.25
40
0.29999999999999999
40
0.34999999999999998
40
0.39999999999999997
40
0.44999999999999996
40
0.49999999999999994
40
0.54999999999999993
40
0.59999999999999998
40
0.65000000000000002
40
0.70000000000000007
40
0.75000000000000011
40
0.80000000000000016
40
0.8500000000000002
40
0.90000000000000024
40
0.95000000000000029
40
1
40
1
40
1
40
1
40
1
40
1
41
1
41
1
41
1
41
1
41
1
41
1
41
1
41
1
41
1
41
1
41
1
41
1
41
1
41
1
41
1
41
1
41
1
41
1
41
1
41
1
41
1
41
1
41
1
41
1
41
1
10
104.57601639189033
20
9.3256656297615521
30
0
10
104.34906734733438
20
9.6257800714074211
30
0
10
103.85858208011163
20
10.253396006903458
30
0
10
103.01309761371476
20
11.276972337144603
30
0
10
101.66533291199389
20
12.806792170880266
30
0
10
99.612424881111934
20
14.988449847394056
30
0
10
97.197465828497229
20
17.416764612301961
30
0
10
94.441690595951741
20
20.037775733735575
30
0
10
91.378998968796083
20
22.771369757562503
30
0
10
88.048983711842354
20
25.524804221819025
30
0
10
84.491645903864452
20
28.203597383500025
30
0
10
80.742188347633032
20
30.722423603165744
30
0
10
76.82488423328904
20
33.018563669915231
30
0
10
72.753233293272572
20
35.052029578572018
30
0
10
68.533178697234632
20
36.799454155526618
30
0
10
64.165405973048053
20
38.250503590477123
30
0
10
59.648028651305964
20
39.403812341232012
30
0
10
54.979356726320205
20
40.263575655783981
30
0
10
50.160371824615453
20
40.836454743475585
30
0
10
45.193455226387947
20
41.130207720691637
30
0
10
40.081629008509417
20
41.152395950746907
30
0
10
35.878545586136013
20
40.957975426143008
30
0
10
32.663280544743969
20
40.694747066729335
30
0
10
30.491905390453205
20
40.467290508985187
30
0
10
29.399251528238118
20
40.340569454285593
30
0
0
SPLINE
5
141
100
AcDbEntity
8
0
100
AcDbSpline
70
4
71
5
72
36
73
30
74
0
42
0.000000001
43
0.0000000001
44
0.0000000001
40
0
40
0
40
0
40
0
40
0
40
0
40
0.040000000000000001
40
0.080000000000000002
40
0.12
40
0.16
40
0.20000000000000001
40
0.24000000000000002
40
0.28000000000000003
40
0.32000000000000001
40
0.35999999999999999
40
0.39999999999999997
40
0.43999999999999995
40
0.47999999999999993
40
0.51999999999999991
40
0.55999999999999994
40
0.59999999999999998
40
0.64000000000000001
40
0.68000000000000005
40
0.72000000000000008
40
0.76000000000000012
40
0.80000000000000016
40
0.84000000000000019
40
0.88000000000000023
40
0.92000000000000026
40
0.9600000000000003
40
1
40
1
40
1
40
1
40
1
40
1
41
1
41
1
41
1
41
1
41
1
41
1
41
1
41
1
41
1
41
1
41
1
41
1
41
1
41
1
41
1
41
1
41
1
41
1
41
1
41
1
41
1
41
1
41
1
41
1
41
1
41
1
41
1
41
1
41
1
41
1
10
29.399251528238118
20
40.340569454285593
30
0
10
29.65650715648172
20
40.151921514227894
30
0
10
30.149277549661942
20
39.745355748531061
30
0
10
30.823210092560917
20
39.047694603646576
30
0
10
31.591004370436568
20
37.941421071489479
30
0
10
32.331448092211673
20
36.268305648639711
30
0
10
32.852162023632914
20
34.319573104029068
30
0
10
33.154837684309889
20
32.127454688912643
30
0
10
33.245151773362366
20
29.751212091448096
30
0
10
33.132846047426931
20
27.276120497664614
30
0
10
32.829319454971021
20
24.79800397164751
30
0
10
32.346014059036634
20
22.411866817002014
30
0
10
31.692410888085721
20
20.198177062168845
30
0
10
30.874634473938197
20
18.211693873795099
30
0
10
29.892918926642828
20
16.46471326100853
30
0
10
28.743335198935934
20
14.929262261523981
30
0
10
27.423066916180421
20
13.555475765717874
30
0
10
25.935076374824028
20
12.285713704466561
30
0
10
24.292458645716636
20
11.068884796086703
30
0
10
22.524801121410572
20
9.8779371785267038
30
0
10
20.676605923834956
20
8.7119904803880832
30
0
10
18.799656073044325
20
7.5864440344548791
30
0
10
16.947136965574696
20
6.52664104540849
30
0
10
15.167375934395759
20
5.5604504961482224
30
0
10
13.497027358506825
20
4.7106989667852037
30
0
10
11.956439283448566
20
3.9895485279375293
30
0
10
10.83533831285199
20
3.5198341761883265
30
0
10
10.058201586812192
20
3.2283071529128442
30
0
10
9.5683466965252677
20
3.0608929744536524
30
0
10
9.3304781015160518
20
2.9839199716362175
30
0
0
ARC
5
142
100
AcDbEntity
8
0
100
AcDbCircle
10
0
20
0
30
0
40
9.7959991833401094
210
0
220
-0
230
1
100
AcDbArc
50
17.734460544630693
51
34.760143141241194
0
SPLINE
5
143
100
AcDbEntity
8
0
100
AcDbSpline
70
4
71
5
72
26
73
20
74
0
42
0.000000001
43
0.0000000001
44
0.0000000001
40
0
40
0
40
0
40
0
40
0
40
0
40
0.066666666666666666
40
0.13333333333333333
40
0.20000000000000001
40
0.26666666666666666
40
0.33333333333333331
40
0.39999999999999997
40
0.46666666666666662
40
0.53333333333333333
40
0.59999999999999998
40
0.66666666666666663
40
0.73333333333333328
40
0.79999999999999993
40
0.86666666666666659
40
0.93333333333333324
40
1
40
1
40
1
40
1
40
1
40
1
41
1
41
1
41
1
41
1
41
1
41
1
41
1
41
1
41
1
41
1
41
1
41
1
41
1
41
1
41
1
41
1
41
1
41
1
41
1
41
1
10
8.0478641199371506
20
5.585112631543657
30
0
10
8.3711052083009392
20
6.3260388196847837
30
0
10
9.0019920717049544
20
7.7974864153902299
30
0
10
9.9015363489603452
20
9.9734440952981682
30
0
10
11.006677399381982
20
12.811834292532001
30
0
10
12.224025796761641
20
16.253010260239741
30
0
10
13.263472812679208
20
19.586092073572509
30
0
10
14.10291935887297
20
22.812573412390826
30
0
10
14.711189386347314
20
25.938650307244728
30
0
10
15.046577584994981
20
28.97865081243846
30
0
10
15.060681773267078
20
31.953121858005208
30
0
10
14.705219494276381
20
34.884715930791238
30
0
10
13.938263111248787
20
37.795255732131977
30
0
10
12.733449779611568
20
40.702132960116295
30
0
10
11.085559374693757
20
43.616064414962125
30
0
10
9.0004027322673981
20
46.543126755532391
30
0
10
6.9911144112850918
20
48.897411980623495
30
0
10
5.2966903134361747
20
50.670523361084044
30
0
10
4.0843660663765302
20
51.855860790437532
30
0
10
3.4575265977912553
20
52.449345347424547
30
0
0
SPLINE
5
144
100
AcDbEntity
8
0
100
AcDbSpline
70
4
71
5
72
41
73
35
74
0
42
0.000000001
43
0.0000000001
44
0.0000000001
40
0
40
0
40
0
40
0
40
0
40
0
40
0.033333333333333333
40
0.066666666666666666
40
0.10000000000000001
40
0.13333333333333333
40
0.16666666666666666
40
0.19999999999999998
40
0.23333333333333331
40
0.26666666666666666
40
0.29999999999999999
40
0.33333333333333331
40
0.36666666666666664
40
0.39999999999999997
40
0.43333333333333329
40
0.46666666666666662
40
0.49999999999999994
40
0.53333333333333333
40
0.56666666666666665
40
0.59999999999999998
40
0.6333333333333333
40
0.66666666666666663
40
0.69999999999999996
40
0.73333333333333328
40
0.76666666666666661
40
0.79999999999999993
40
0.83333333333333326
40
0.86666666666666659
40
0.89999999999999991
40
0.93333333333333324
40
0.96666666666666656
40
1
40
1
40
1
40
1
40
1
40
1
41
1
41
1
41
1
41
1
41
1
41
1
41
1
41
1
41
1
41
1
41
1
41
1
41
1
41
1
41
1
41
1
41
1
41
1
41
1
41
1
41
1
41
1
41
1
41
1
41
1
41
1
41
1
41
1
41
1
41
1
41
1
41
1
41
1
41
1
41
1
10
3.4575265977912553
20
52.449345347424547
30
0
10
3.6946483512842967
20
52.783810694438664
30
0
10
4.1877468828615108
20
53.458891060471707
30
0
10
4.9839594877069313
20
54.489959760957547
30
0
10
6.1589130644909531
20
55.901688705621595
30
0
10
7.8172684604707223
20
57.724483885955003
30
0
10
9.6655558497074558
20
59.594402900295826
30
0
10
11.702643627622969
20
61.488593364605286
30
0
10
13.925368731433361
20
63.369060950892695
30
0
10
16.330276667290505
20
65.188646429879896
30
0
10
18.915258844647923
20
66.89627225894418
30
0
10
21.680924639274291
20
68.442194355316332
30
0
10
24.632707926125303
20
69.783847825912957
30
0
10
27.78054102909886
20
70.889632535564417
30
0
10
31.132632105159075
20
71.737667053834457
30
0
10
34.69052522950647
20
72.315630990417858
30
0
10
38.44324536928729
20
72.620346644245217
30
0
10
42.362449351888849
20
72.657496064827612
30
0
10
46.39505933693237
20
72.441682729020386
30
0
10
50.469323721286301
20
71.994683237143661
30
0
10
54.505165518284386
20
71.343135349193318
30
0
10
58.422822842851147
20
70.516525334599166
30
0
10
62.15261783611971
20
69.545072619777898
30
0
10
65.64332317093249
20
68.457826545223369
30
0
10
68.873721657916334
20
67.280415421011909
30
0
10
71.854306245504773
20
66.033983106972954
30
0
10
74.615287006513654
20
64.735784283395972
30
0
10
77.197881108651373
20
63.399354614316067
30
0
10
79.644960238765748
20
62.034854771643204
30
0
10
81.99077267541378
20
60.649279032517143
30
0
10
84.255292001278846
20
59.246848600637854
30
0
10
86.010296004368257
20
58.113158424758581
30
0
10
87.296343959516662
20
57.256630514773789
30
0
10
88.140314818988386
20
56.682834767729702
30
0
10
88.55895130404366
20
56.395242598671864
30
0
0
SPLINE
5
145
100
AcDbEntity
8
0
100
AcDbSpline
70
4
71
5
72
26
73
20
74
0
42
0.000000001
43
0.0000000001
44
0.0000000001
40
0
40
0
40
0
40
0
40
0
40
0
40
0.066666666666666666
40
0.13333333333333333
40
0.20000000000000001
40
0.26666666666666666
40
0.33333333333333331
40
0.39999999999999997
40
0.46666666666666662
40
0.53333333333333333
40
0.59999999999999998
40
0.66666666666666663
40
0.73333333333333328
40
0.79999999999999993
40
0.86666666666666659
40
0.93333333333333324
40
1
40
1
40
1
40
1
40
1
40
1
41
1
41
1
41
1
41
1
41
1
41
1
41
1
41
1
41
1
41
1
41
1
41
1
41
1
41
1
41
1
41
1
41
1
41
1
41
1
41
1
10
88.55895130404366
20
56.395242598671864
30
0
10
88.387792748157992
20
56.683962364491684
30
0
10
88.033113787015736
20
57.269708072951985
30
0
10
87.46400919751872
20
58.173245814031873
30
0
10
86.630496728429094
20
59.428157936442119
30
0
10
85.462338172900246
20
61.080823585021321
30
0
10
84.168477778414825
20
62.814635650252306
30
0
10
82.754528929976786
20
64.620843485801231
30
0
10
81.235175913074045
20
66.481019576075255
30
0
10
79.636022350785481
20
68.365452214063268
30
0
10
77.988378112438824
20
70.238515058370297
30
0
10
76.32582518043607
20
72.062401868875241
30
0
10
74.680196152624077
20
73.801648511030251
30
0
10
73.078285788535155
20
75.426946628122749
30
0
10
71.537055369762669
20
76.921036421230866
30
0
10
70.064641852060305
20
78.277164429467675
30
0
10
68.944012613431426
20
79.250949825742566
30
0
10
68.135680471510398
20
79.919614291949529
30
0
10
67.610975647312415
20
80.338175086280728
30
0
10
67.35216893429849
20
80.540651746063929
30
0
0
SPLINE
5
146
100
AcDbEntity
8
0
100
AcDbSpline
70
4
71
5
72
31
73
25
74
0
42
0.000000001
43
0.0000000001
44
0.0000000001
40
0
40
0
40
0
40
0
40
0
40
0
40
0.050000000000000003
40
0.10000000000000001
40
0.15000000000000002
40
0.20000000000000001
40
0.25
40
0.29999999999999999
40
0.34999999999999998
40
0.39999999999999997
40
0.44999999999999996
40
0.49999999999999994
40
0.54999999999999993
40
0.59999999999999998
40
0.65000000000000002
40
0.70000000000000007
40
0.75000000000000011
40
0.80000000000000016
40
0.8500000000000002
40
0.90000000000000024
40
0.95000000000000029
40
1
40
1
40
1
40
1
40
1
40
1
41
1
41
1
41
1
41
1
41
1
41
1
41
1
41
1
41
1
41
1
41
1
41
1
41
1
41
1
41
1
41
1
41
1
41
1
41
1
41
1
41
1
41
1
41
1
41
1
41
1
10
67.35216893429849
20
80.540651746063929
30
0
10
66.979478769089809
20
80.59238749449429
30
0
10
66.188861826595257
20
80.689353519938749
30
0
10
64.867236262843292
20
80.815283484536906
30
0
10
62.832476724384591
20
80.944015902934296
30
0
10
59.838186597303846
20
81.035055650436206
30
0
10
56.413474837788144
20
81.044499565167328
30
0
10
52.61151274589588
20
80.949206948340859
30
0
10
48.512919856390312
20
80.716499801355695
30
0
10
44.211271305515538
20
80.308795612937374
30
0
10
39.801660808505119
20
79.687570735964158
30
0
10
35.369314844171797
20
78.81738297273526
30
0
10
30.975746329202785
20
77.67104688126274
30
0
10
26.658776805574711
20
76.229832424273653
30
0
10
22.439131815763428
20
74.481418970414367
30
0
10
18.324603208514404
20
72.418984153752831
30
0
10
14.314822632660258
20
70.040228454835415
30
0
10
10.40562858541576
20
67.346923347483724
30
0
10
6.5930049952599088
20
64.344473132765415
30
0
10
2.873149864868167
20
61.040047446758187
30
0
10
-0.75714656597883745
20
57.441129911784294
30
0
10
-3.5916992844720834
20
54.331625050578339
30
0
10
-5.6791044405932833
20
51.871958778550429
30
0
10
-7.0536624622702826
20
50.175728608040295
30
0
10
-7.7366801006260957
20
49.313500335478381
30
0
0
SPLINE
5
147
100
AcDbEntity
8
0
100
AcDbSpline
70
4
71
5
72
36
73
30
74
0
42
0.000000001
43
0.0000000001
44
0.0000000001
40
0
40
0
40
0
40
0
40
0
40
0
40
0.040000000000000001
40
0.080000000000000002
40
0.12
40
0.16
40
0.20000000000000001
40
0.24000000000000002
40
0.28000000000000003
40
0.32000000000000001
40
0.35999999999999999
40
0.39999999999999997
40
0.43999999999999995
40
0.47999999999999993
40
0.51999999999999991
40
0.55999999999999994
40
0.59999999999999998
40
0.64000000000000001
40
0.68000000000000005
40
0.72000000000000008
40
0.76000000000000012
40
0.80000000000000016
40
0.84000000000000019
40
0.88000000000000023
40
0.92000000000000026
40
0.9600000000000003
40
1
40
1
40
1
40
1
40
1
40
1
41
1
41
1
41
1
41
1
41
1
41
1
41
1
41
1
41
1
41
1
41
1
41
1
41
1
41
1
41
1
41
1
41
1
41
1
41
1
41
1
41
1
41
1
41
1
41
1
41
1
41
1
41
1
41
1
41
1
41
1
10
-7.7366801006260957
20
49.313500335478381
30
0
10
-7.4213786637226047
20
49.362013297040754
30
0
10
-6.7854519672103457
20
49.422969173711678
30
0
10
-5.8155887695421207
20
49.406190518347103
30
0
10
-4.4904227126633769
20
49.166849542356005
30
0
10
-2.7837786747075621
20
48.507351057899129
30
0
10
-1.0376163257335742
20
47.497589412841961
30
0
10
0.7264694829187528
20
46.161551628503837
30
0
10
2.4705884421325823
20
44.545156078891274
30
0
10
4.1413303517786479
20
42.715589888491998
30
0
10
5.6789976401007758
20
40.748671176580743
30
0
10
7.0245028801448059
20
38.719668890845085
30
0
10
8.127650682848703
20
36.692186619380159
30
0
10
8.9540511681248507
20
34.709275638234082
30
0
10
9.4951752853400162
20
32.779796079644335
30
0
10
9.7680246498520766
20
30.881189816325595
30
0
10
9.8058677412164243
20
28.976205413515022
30
0
10
9.651556903084856
20
27.026179847374365
30
0
10
9.3504787405936778
20
25.004245739564762
30
0
10
8.942683254755039
20
22.912195980897593
30
0
10
8.4602607143483173
20
20.780875806979946
30
0
10
7.9289382713671772
20
18.657790315079637
30
0
10
7.3684033284751234
20
16.598467611634117
30
0
10
6.7931221237386428
20
14.656786628295453
30
0
10
6.2128723875200258
20
12.874806754602165
30
0
10
5.6334424781969927
20
11.275516114147852
30
0
10
5.172842582835635
20
10.150639812101673
30
0
10
4.8294646690000578
20
9.3949804281530884
30
0
10
4.6014646551350582
20
8.9302210125790573
30
0
10
4.4876942908326454
20
8.7075943837565255
30
0
0
ARC
5
148
100
AcDbEntity
8
0
100
AcDbCircle
10
0
20
0
30
0
40
9.7959991833401112
210
0
220
-0
230
1
100
AcDbArc
50
62.734460544630736
51
79.760143141241187
0
ENDSEC
0
SECTION
2
OBJECTS
0
DICTIONARY
5
C
100
AcDbDictionary
3
ACAD_GROUP
350
D
3
ACAD_MLINESTYLE
350
17
0
DICTIONARY
5
D
100
AcDbDictionary
0
DICTIONARY
5
1A
330
C
100
AcDbDictionary
0
DICTIONARY
5
17
100
AcDbDictionary
0
ENDSEC
0
EOF
